<svg width="1631" height="8" viewBox="0 0 1631 8" fill="none" xmlns="http://www.w3.org/2000/svg">
<line y1="1.21631" x2="1631" y2="1.21631" stroke="#9A8F7B" stroke-width="2"/>
<line y1="7" x2="1631" y2="7" stroke="#9A8F7B" stroke-width="2"/>
<path d="M2.10827 3.98098L5.12448 2.27732L5.09179 5.74127L2.10827 3.98098Z" stroke="#9A8F7B"/>
<path d="M9.34092 5.74123L9.30827 2.27729L12.3245 3.98099L9.34092 5.74123Z" stroke="#9A8F7B"/>
<path d="M14.5414 3.98098L17.5576 2.27732L17.5249 5.74127L14.5414 3.98098Z" stroke="#9A8F7B"/>
<path d="M21.774 5.74123L21.7414 2.27729L24.7576 3.98099L21.774 5.74123Z" stroke="#9A8F7B"/>
<path d="M26.9745 3.98098L29.9907 2.27732L29.958 5.74127L26.9745 3.98098Z" stroke="#9A8F7B"/>
<path d="M34.2071 5.74123L34.1745 2.27729L37.1907 3.98099L34.2071 5.74123Z" stroke="#9A8F7B"/>
<path d="M39.4071 3.98098L42.4233 2.27732L42.3906 5.74127L39.4071 3.98098Z" stroke="#9A8F7B"/>
<path d="M46.6402 5.74123L46.6076 2.27729L49.6238 3.98099L46.6402 5.74123Z" stroke="#9A8F7B"/>
<path d="M51.8402 3.98098L54.8564 2.27732L54.8237 5.74127L51.8402 3.98098Z" stroke="#9A8F7B"/>
<path d="M59.0733 5.74123L59.0407 2.27729L62.0569 3.98099L59.0733 5.74123Z" stroke="#9A8F7B"/>
<path d="M64.2733 3.98098L67.2895 2.27732L67.2568 5.74127L64.2733 3.98098Z" stroke="#9A8F7B"/>
<path d="M71.506 5.74123L71.4733 2.27729L74.4895 3.98099L71.506 5.74123Z" stroke="#9A8F7B"/>
<path d="M76.7064 3.98098L79.7226 2.27732L79.6899 5.74127L76.7064 3.98098Z" stroke="#9A8F7B"/>
<path d="M83.9391 5.74123L83.9064 2.27729L86.9226 3.98099L83.9391 5.74123Z" stroke="#9A8F7B"/>
<path d="M89.1395 3.98098L92.1557 2.27732L92.123 5.74127L89.1395 3.98098Z" stroke="#9A8F7B"/>
<path d="M96.3722 5.74123L96.3395 2.27729L99.3557 3.98099L96.3722 5.74123Z" stroke="#9A8F7B"/>
<path d="M101.572 3.98098L104.588 2.27732L104.556 5.74127L101.572 3.98098Z" stroke="#9A8F7B"/>
<path d="M108.805 5.74123L108.773 2.27729L111.789 3.98099L108.805 5.74123Z" stroke="#9A8F7B"/>
<path d="M114.005 3.98098L117.021 2.27732L116.989 5.74127L114.005 3.98098Z" stroke="#9A8F7B"/>
<path d="M121.238 5.74123L121.205 2.27729L124.221 3.98099L121.238 5.74123Z" stroke="#9A8F7B"/>
<path d="M126.438 3.98098L129.455 2.27732L129.422 5.74127L126.438 3.98098Z" stroke="#9A8F7B"/>
<path d="M133.671 5.74123L133.638 2.27729L136.655 3.98099L133.671 5.74123Z" stroke="#9A8F7B"/>
<path d="M138.871 3.98098L141.888 2.27732L141.855 5.74127L138.871 3.98098Z" stroke="#9A8F7B"/>
<path d="M146.104 5.74123L146.071 2.27729L149.088 3.98099L146.104 5.74123Z" stroke="#9A8F7B"/>
<path d="M151.305 3.98098L154.321 2.27732L154.288 5.74127L151.305 3.98098Z" stroke="#9A8F7B"/>
<path d="M158.537 5.74123L158.505 2.27729L161.521 3.98099L158.537 5.74123Z" stroke="#9A8F7B"/>
<path d="M163.737 3.98098L166.753 2.27732L166.721 5.74127L163.737 3.98098Z" stroke="#9A8F7B"/>
<path d="M170.97 5.74123L170.938 2.27729L173.954 3.98099L170.97 5.74123Z" stroke="#9A8F7B"/>
<path d="M176.17 3.98098L179.186 2.27732L179.154 5.74127L176.17 3.98098Z" stroke="#9A8F7B"/>
<path d="M183.403 5.74123L183.37 2.27729L186.386 3.98099L183.403 5.74123Z" stroke="#9A8F7B"/>
<path d="M188.603 3.98098L191.62 2.27732L191.587 5.74127L188.603 3.98098Z" stroke="#9A8F7B"/>
<path d="M195.836 5.74123L195.803 2.27729L198.82 3.98099L195.836 5.74123Z" stroke="#9A8F7B"/>
<path d="M201.036 3.98098L204.053 2.27732L204.02 5.74127L201.036 3.98098Z" stroke="#9A8F7B"/>
<path d="M208.269 5.74123L208.236 2.27729L211.253 3.98099L208.269 5.74123Z" stroke="#9A8F7B"/>
<path d="M213.469 3.98098L216.485 2.27732L216.453 5.74127L213.469 3.98098Z" stroke="#9A8F7B"/>
<path d="M220.702 5.74123L220.67 2.27729L223.686 3.98099L220.702 5.74123Z" stroke="#9A8F7B"/>
<path d="M225.902 3.98098L228.918 2.27732L228.886 5.74127L225.902 3.98098Z" stroke="#9A8F7B"/>
<path d="M233.135 5.74123L233.102 2.27729L236.118 3.98099L233.135 5.74123Z" stroke="#9A8F7B"/>
<path d="M238.335 3.98098L241.352 2.27732L241.319 5.74127L238.335 3.98098Z" stroke="#9A8F7B"/>
<path d="M245.568 5.74123L245.535 2.27729L248.552 3.98099L245.568 5.74123Z" stroke="#9A8F7B"/>
<path d="M250.768 3.98098L253.785 2.27732L253.752 5.74127L250.768 3.98098Z" stroke="#9A8F7B"/>
<path d="M258.001 5.74123L257.968 2.27729L260.985 3.98099L258.001 5.74123Z" stroke="#9A8F7B"/>
<path d="M263.202 3.98098L266.218 2.27732L266.185 5.74127L263.202 3.98098Z" stroke="#9A8F7B"/>
<path d="M270.434 5.74123L270.402 2.27729L273.418 3.98099L270.434 5.74123Z" stroke="#9A8F7B"/>
<path d="M275.634 3.98098L278.65 2.27732L278.618 5.74127L275.634 3.98098Z" stroke="#9A8F7B"/>
<path d="M282.867 5.74123L282.835 2.27729L285.851 3.98099L282.867 5.74123Z" stroke="#9A8F7B"/>
<path d="M288.067 3.98098L291.083 2.27732L291.051 5.74127L288.067 3.98098Z" stroke="#9A8F7B"/>
<path d="M295.3 5.74123L295.267 2.27729L298.283 3.98099L295.3 5.74123Z" stroke="#9A8F7B"/>
<path d="M300.5 3.98098L303.517 2.27732L303.484 5.74127L300.5 3.98098Z" stroke="#9A8F7B"/>
<path d="M307.733 5.74123L307.7 2.27729L310.717 3.98099L307.733 5.74123Z" stroke="#9A8F7B"/>
<path d="M312.933 3.98098L315.95 2.27732L315.917 5.74127L312.933 3.98098Z" stroke="#9A8F7B"/>
<path d="M320.166 5.74123L320.133 2.27729L323.15 3.98099L320.166 5.74123Z" stroke="#9A8F7B"/>
<path d="M325.367 3.98098L328.383 2.27732L328.35 5.74127L325.367 3.98098Z" stroke="#9A8F7B"/>
<path d="M332.599 5.74123L332.567 2.27729L335.583 3.98099L332.599 5.74123Z" stroke="#9A8F7B"/>
<path d="M337.799 3.98098L340.815 2.27732L340.783 5.74127L337.799 3.98098Z" stroke="#9A8F7B"/>
<path d="M345.032 5.74123L345 2.27729L348.016 3.98099L345.032 5.74123Z" stroke="#9A8F7B"/>
<path d="M350.232 3.98098L353.249 2.27732L353.216 5.74127L350.232 3.98098Z" stroke="#9A8F7B"/>
<path d="M357.465 5.74123L357.433 2.27729L360.449 3.98099L357.465 5.74123Z" stroke="#9A8F7B"/>
<path d="M362.665 3.98098L365.682 2.27732L365.649 5.74127L362.665 3.98098Z" stroke="#9A8F7B"/>
<path d="M369.898 5.74123L369.865 2.27729L372.882 3.98099L369.898 5.74123Z" stroke="#9A8F7B"/>
<path d="M375.099 3.98098L378.115 2.27732L378.082 5.74127L375.099 3.98098Z" stroke="#9A8F7B"/>
<path d="M382.331 5.74123L382.299 2.27729L385.315 3.98099L382.331 5.74123Z" stroke="#9A8F7B"/>
<path d="M387.532 3.98098L390.548 2.27732L390.515 5.74127L387.532 3.98098Z" stroke="#9A8F7B"/>
<path d="M394.764 5.74123L394.732 2.27729L397.748 3.98099L394.764 5.74123Z" stroke="#9A8F7B"/>
<path d="M399.965 3.98098L402.981 2.27732L402.948 5.74127L399.965 3.98098Z" stroke="#9A8F7B"/>
<path d="M407.197 5.74123L407.165 2.27729L410.181 3.98099L407.197 5.74123Z" stroke="#9A8F7B"/>
<path d="M412.397 3.98098L415.414 2.27732L415.381 5.74127L412.397 3.98098Z" stroke="#9A8F7B"/>
<path d="M419.63 5.74123L419.598 2.27729L422.614 3.98099L419.63 5.74123Z" stroke="#9A8F7B"/>
<path d="M424.83 3.98098L427.847 2.27732L427.814 5.74127L424.83 3.98098Z" stroke="#9A8F7B"/>
<path d="M432.063 5.74123L432.03 2.27729L435.047 3.98099L432.063 5.74123Z" stroke="#9A8F7B"/>
<path d="M437.264 3.98098L440.28 2.27732L440.247 5.74127L437.264 3.98098Z" stroke="#9A8F7B"/>
<path d="M444.496 5.74123L444.464 2.27729L447.48 3.98099L444.496 5.74123Z" stroke="#9A8F7B"/>
<path d="M449.697 3.98098L452.713 2.27732L452.68 5.74127L449.697 3.98098Z" stroke="#9A8F7B"/>
<path d="M456.929 5.74123L456.897 2.27729L459.913 3.98099L456.929 5.74123Z" stroke="#9A8F7B"/>
<path d="M462.13 3.98098L465.146 2.27732L465.113 5.74127L462.13 3.98098Z" stroke="#9A8F7B"/>
<path d="M469.362 5.74123L469.33 2.27729L472.346 3.98099L469.362 5.74123Z" stroke="#9A8F7B"/>
<path d="M474.562 3.98098L477.579 2.27732L477.546 5.74127L474.562 3.98098Z" stroke="#9A8F7B"/>
<path d="M481.796 5.74123L481.763 2.27729L484.779 3.98099L481.796 5.74123Z" stroke="#9A8F7B"/>
<path d="M486.995 3.98098L490.012 2.27732L489.979 5.74127L486.995 3.98098Z" stroke="#9A8F7B"/>
<path d="M494.228 5.74123L494.195 2.27729L497.212 3.98099L494.228 5.74123Z" stroke="#9A8F7B"/>
<path d="M499.429 3.98098L502.445 2.27732L502.412 5.74127L499.429 3.98098Z" stroke="#9A8F7B"/>
<path d="M506.661 5.74123L506.629 2.27729L509.645 3.98099L506.661 5.74123Z" stroke="#9A8F7B"/>
<path d="M511.862 3.98098L514.878 2.27732L514.845 5.74127L511.862 3.98098Z" stroke="#9A8F7B"/>
<path d="M519.094 5.74123L519.062 2.27729L522.078 3.98099L519.094 5.74123Z" stroke="#9A8F7B"/>
<path d="M524.295 3.98098L527.311 2.27732L527.278 5.74127L524.295 3.98098Z" stroke="#9A8F7B"/>
<path d="M531.527 5.74123L531.495 2.27729L534.511 3.98099L531.527 5.74123Z" stroke="#9A8F7B"/>
<path d="M536.727 3.98098L539.744 2.27732L539.711 5.74127L536.727 3.98098Z" stroke="#9A8F7B"/>
<path d="M543.961 5.74123L543.928 2.27729L546.944 3.98099L543.961 5.74123Z" stroke="#9A8F7B"/>
<path d="M549.161 3.98098L552.177 2.27732L552.144 5.74127L549.161 3.98098Z" stroke="#9A8F7B"/>
<path d="M556.393 5.74123L556.361 2.27729L559.377 3.98099L556.393 5.74123Z" stroke="#9A8F7B"/>
<path d="M561.594 3.98098L564.61 2.27732L564.577 5.74127L561.594 3.98098Z" stroke="#9A8F7B"/>
<path d="M568.826 5.74123L568.794 2.27729L571.81 3.98099L568.826 5.74123Z" stroke="#9A8F7B"/>
<path d="M574.026 3.98098L577.042 2.27732L577.01 5.74127L574.026 3.98098Z" stroke="#9A8F7B"/>
<path d="M581.259 5.74123L581.227 2.27729L584.243 3.98099L581.259 5.74123Z" stroke="#9A8F7B"/>
<path d="M586.459 3.98098L589.476 2.27732L589.443 5.74127L586.459 3.98098Z" stroke="#9A8F7B"/>
<path d="M593.692 5.74123L593.659 2.27729L596.676 3.98099L593.692 5.74123Z" stroke="#9A8F7B"/>
<path d="M598.892 3.98098L601.909 2.27732L601.876 5.74127L598.892 3.98098Z" stroke="#9A8F7B"/>
<path d="M606.125 5.74123L606.092 2.27729L609.109 3.98099L606.125 5.74123Z" stroke="#9A8F7B"/>
<path d="M611.326 3.98098L614.342 2.27732L614.309 5.74127L611.326 3.98098Z" stroke="#9A8F7B"/>
<path d="M618.558 5.74123L618.526 2.27729L621.542 3.98099L618.558 5.74123Z" stroke="#9A8F7B"/>
<path d="M623.759 3.98098L626.775 2.27732L626.742 5.74127L623.759 3.98098Z" stroke="#9A8F7B"/>
<path d="M630.991 5.74123L630.959 2.27729L633.975 3.98099L630.991 5.74123Z" stroke="#9A8F7B"/>
<path d="M636.191 3.98098L639.207 2.27732L639.175 5.74127L636.191 3.98098Z" stroke="#9A8F7B"/>
<path d="M643.424 5.74123L643.392 2.27729L646.408 3.98099L643.424 5.74123Z" stroke="#9A8F7B"/>
<path d="M648.624 3.98098L651.641 2.27732L651.608 5.74127L648.624 3.98098Z" stroke="#9A8F7B"/>
<path d="M655.857 5.74123L655.824 2.27729L658.841 3.98099L655.857 5.74123Z" stroke="#9A8F7B"/>
<path d="M661.057 3.98098L664.074 2.27732L664.041 5.74127L661.057 3.98098Z" stroke="#9A8F7B"/>
<path d="M668.29 5.74123L668.257 2.27729L671.274 3.98099L668.29 5.74123Z" stroke="#9A8F7B"/>
<path d="M673.49 3.98098L676.506 2.27732L676.474 5.74127L673.49 3.98098Z" stroke="#9A8F7B"/>
<path d="M680.723 5.74123L680.691 2.27729L683.707 3.98099L680.723 5.74123Z" stroke="#9A8F7B"/>
<path d="M685.923 3.98098L688.939 2.27732L688.907 5.74127L685.923 3.98098Z" stroke="#9A8F7B"/>
<path d="M693.156 5.74123L693.123 2.27729L696.139 3.98099L693.156 5.74123Z" stroke="#9A8F7B"/>
<path d="M698.356 3.98098L701.373 2.27732L701.34 5.74127L698.356 3.98098Z" stroke="#9A8F7B"/>
<path d="M705.589 5.74123L705.556 2.27729L708.573 3.98099L705.589 5.74123Z" stroke="#9A8F7B"/>
<path d="M710.789 3.98098L713.806 2.27732L713.773 5.74127L710.789 3.98098Z" stroke="#9A8F7B"/>
<path d="M718.022 5.74123L717.989 2.27729L721.006 3.98099L718.022 5.74123Z" stroke="#9A8F7B"/>
<path d="M723.223 3.98098L726.239 2.27732L726.206 5.74127L723.223 3.98098Z" stroke="#9A8F7B"/>
<path d="M730.455 5.74123L730.423 2.27729L733.439 3.98099L730.455 5.74123Z" stroke="#9A8F7B"/>
<path d="M735.655 3.98098L738.671 2.27732L738.639 5.74127L735.655 3.98098Z" stroke="#9A8F7B"/>
<path d="M742.888 5.74123L742.856 2.27729L745.872 3.98099L742.888 5.74123Z" stroke="#9A8F7B"/>
<path d="M748.088 3.98098L751.104 2.27732L751.072 5.74127L748.088 3.98098Z" stroke="#9A8F7B"/>
<path d="M755.321 5.74123L755.288 2.27729L758.304 3.98099L755.321 5.74123Z" stroke="#9A8F7B"/>
<path d="M760.521 3.98098L763.538 2.27732L763.505 5.74127L760.521 3.98098Z" stroke="#9A8F7B"/>
<path d="M767.754 5.74123L767.721 2.27729L770.738 3.98099L767.754 5.74123Z" stroke="#9A8F7B"/>
<path d="M772.954 3.98098L775.97 2.27732L775.937 5.74127L772.954 3.98098Z" stroke="#9A8F7B"/>
<path d="M780.187 5.74123L780.154 2.27729L783.171 3.98099L780.187 5.74123Z" stroke="#9A8F7B"/>
<path d="M785.387 3.98098L788.403 2.27732L788.371 5.74127L785.387 3.98098Z" stroke="#9A8F7B"/>
<path d="M792.62 5.74123L792.587 2.27729L795.603 3.98099L792.62 5.74123Z" stroke="#9A8F7B"/>
<path d="M797.82 3.98098L800.836 2.27732L800.804 5.74127L797.82 3.98098Z" stroke="#9A8F7B"/>
<path d="M805.053 5.74123L805.02 2.27729L808.036 3.98099L805.053 5.74123Z" stroke="#9A8F7B"/>
<path d="M810.253 3.98098L813.27 2.27732L813.237 5.74127L810.253 3.98098Z" stroke="#9A8F7B"/>
<path d="M817.486 5.74123L817.453 2.27729L820.469 3.98099L817.486 5.74123Z" stroke="#9A8F7B"/>
<path d="M822.686 3.98098L825.703 2.27732L825.67 5.74127L822.686 3.98098Z" stroke="#9A8F7B"/>
<path d="M829.919 5.74123L829.886 2.27729L832.903 3.98099L829.919 5.74123Z" stroke="#9A8F7B"/>
<path d="M835.119 3.98098L838.135 2.27732L838.103 5.74127L835.119 3.98098Z" stroke="#9A8F7B"/>
<path d="M842.352 5.74123L842.32 2.27729L845.336 3.98099L842.352 5.74123Z" stroke="#9A8F7B"/>
<path d="M847.552 3.98098L850.568 2.27732L850.536 5.74127L847.552 3.98098Z" stroke="#9A8F7B"/>
<path d="M854.785 5.74123L854.752 2.27729L857.768 3.98099L854.785 5.74123Z" stroke="#9A8F7B"/>
<path d="M859.985 3.98098L863.001 2.27732L862.969 5.74127L859.985 3.98098Z" stroke="#9A8F7B"/>
<path d="M867.218 5.74123L867.185 2.27729L870.201 3.98099L867.218 5.74123Z" stroke="#9A8F7B"/>
<path d="M872.418 3.98098L875.434 2.27732L875.401 5.74127L872.418 3.98098Z" stroke="#9A8F7B"/>
<path d="M879.651 5.74123L879.618 2.27729L882.635 3.98099L879.651 5.74123Z" stroke="#9A8F7B"/>
<path d="M884.851 3.98098L887.867 2.27732L887.834 5.74127L884.851 3.98098Z" stroke="#9A8F7B"/>
<path d="M892.084 5.74123L892.051 2.27729L895.067 3.98099L892.084 5.74123Z" stroke="#9A8F7B"/>
<path d="M897.284 3.98098L900.3 2.27732L900.268 5.74127L897.284 3.98098Z" stroke="#9A8F7B"/>
<path d="M904.517 5.74123L904.484 2.27729L907.5 3.98099L904.517 5.74123Z" stroke="#9A8F7B"/>
<path d="M909.717 3.98098L912.733 2.27732L912.701 5.74127L909.717 3.98098Z" stroke="#9A8F7B"/>
<path d="M916.95 5.74123L916.917 2.27729L919.933 3.98099L916.95 5.74123Z" stroke="#9A8F7B"/>
<path d="M922.15 3.98098L925.166 2.27732L925.134 5.74127L922.15 3.98098Z" stroke="#9A8F7B"/>
<path d="M929.383 5.74123L929.35 2.27729L932.366 3.98099L929.383 5.74123Z" stroke="#9A8F7B"/>
<path d="M934.583 3.98098L937.599 2.27732L937.566 5.74127L934.583 3.98098Z" stroke="#9A8F7B"/>
<path d="M941.816 5.74123L941.783 2.27729L944.8 3.98099L941.816 5.74123Z" stroke="#9A8F7B"/>
<path d="M947.016 3.98098L950.032 2.27732L950 5.74127L947.016 3.98098Z" stroke="#9A8F7B"/>
<path d="M954.249 5.74123L954.216 2.27729L957.232 3.98099L954.249 5.74123Z" stroke="#9A8F7B"/>
<path d="M959.449 3.98098L962.465 2.27732L962.433 5.74127L959.449 3.98098Z" stroke="#9A8F7B"/>
<path d="M966.682 5.74123L966.649 2.27729L969.665 3.98099L966.682 5.74123Z" stroke="#9A8F7B"/>
<path d="M971.882 3.98098L974.898 2.27732L974.865 5.74127L971.882 3.98098Z" stroke="#9A8F7B"/>
<path d="M979.115 5.74123L979.082 2.27729L982.098 3.98099L979.115 5.74123Z" stroke="#9A8F7B"/>
<path d="M984.315 3.98098L987.331 2.27732L987.298 5.74127L984.315 3.98098Z" stroke="#9A8F7B"/>
<path d="M991.547 5.74123L991.515 2.27729L994.531 3.98099L991.547 5.74123Z" stroke="#9A8F7B"/>
<path d="M996.748 3.98098L999.764 2.27732L999.731 5.74127L996.748 3.98098Z" stroke="#9A8F7B"/>
<path d="M1003.98 5.74123L1003.95 2.27729L1006.96 3.98099L1003.98 5.74123Z" stroke="#9A8F7B"/>
<path d="M1009.18 3.98098L1012.2 2.27732L1012.16 5.74127L1009.18 3.98098Z" stroke="#9A8F7B"/>
<path d="M1016.41 5.74123L1016.38 2.27729L1019.4 3.98099L1016.41 5.74123Z" stroke="#9A8F7B"/>
<path d="M1021.61 3.98098L1024.63 2.27732L1024.6 5.74127L1021.61 3.98098Z" stroke="#9A8F7B"/>
<path d="M1028.85 5.74123L1028.81 2.27729L1031.83 3.98099L1028.85 5.74123Z" stroke="#9A8F7B"/>
<path d="M1034.05 3.98098L1037.06 2.27732L1037.03 5.74127L1034.05 3.98098Z" stroke="#9A8F7B"/>
<path d="M1041.28 5.74123L1041.25 2.27729L1044.26 3.98099L1041.28 5.74123Z" stroke="#9A8F7B"/>
<path d="M1046.48 3.98098L1049.5 2.27732L1049.46 5.74127L1046.48 3.98098Z" stroke="#9A8F7B"/>
<path d="M1053.71 5.74123L1053.68 2.27729L1056.7 3.98099L1053.71 5.74123Z" stroke="#9A8F7B"/>
<path d="M1058.91 3.98098L1061.93 2.27732L1061.9 5.74127L1058.91 3.98098Z" stroke="#9A8F7B"/>
<path d="M1066.15 5.74123L1066.11 2.27729L1069.13 3.98099L1066.15 5.74123Z" stroke="#9A8F7B"/>
<path d="M1071.35 3.98098L1074.36 2.27732L1074.33 5.74127L1071.35 3.98098Z" stroke="#9A8F7B"/>
<path d="M1078.58 5.74123L1078.55 2.27729L1081.56 3.98099L1078.58 5.74123Z" stroke="#9A8F7B"/>
<path d="M1083.78 3.98098L1086.79 2.27732L1086.76 5.74127L1083.78 3.98098Z" stroke="#9A8F7B"/>
<path d="M1091.01 5.74123L1090.98 2.27729L1093.99 3.98099L1091.01 5.74123Z" stroke="#9A8F7B"/>
<path d="M1096.21 3.98098L1099.23 2.27732L1099.2 5.74127L1096.21 3.98098Z" stroke="#9A8F7B"/>
<path d="M1103.44 5.74123L1103.41 2.27729L1106.43 3.98099L1103.44 5.74123Z" stroke="#9A8F7B"/>
<path d="M1108.64 3.98098L1111.66 2.27732L1111.63 5.74127L1108.64 3.98098Z" stroke="#9A8F7B"/>
<path d="M1115.88 5.74123L1115.84 2.27729L1118.86 3.98099L1115.88 5.74123Z" stroke="#9A8F7B"/>
<path d="M1121.08 3.98098L1124.09 2.27732L1124.06 5.74127L1121.08 3.98098Z" stroke="#9A8F7B"/>
<path d="M1128.31 5.74123L1128.28 2.27729L1131.29 3.98099L1128.31 5.74123Z" stroke="#9A8F7B"/>
<path d="M1133.51 3.98098L1136.53 2.27732L1136.49 5.74127L1133.51 3.98098Z" stroke="#9A8F7B"/>
<path d="M1140.74 5.74123L1140.71 2.27729L1143.73 3.98099L1140.74 5.74123Z" stroke="#9A8F7B"/>
<path d="M1145.94 3.98098L1148.96 2.27732L1148.93 5.74127L1145.94 3.98098Z" stroke="#9A8F7B"/>
<path d="M1153.18 5.74123L1153.14 2.27729L1156.16 3.98099L1153.18 5.74123Z" stroke="#9A8F7B"/>
<path d="M1158.38 3.98098L1161.39 2.27732L1161.36 5.74127L1158.38 3.98098Z" stroke="#9A8F7B"/>
<path d="M1165.61 5.74123L1165.58 2.27729L1168.59 3.98099L1165.61 5.74123Z" stroke="#9A8F7B"/>
<path d="M1170.81 3.98098L1173.83 2.27732L1173.79 5.74127L1170.81 3.98098Z" stroke="#9A8F7B"/>
<path d="M1178.04 5.74123L1178.01 2.27729L1181.03 3.98099L1178.04 5.74123Z" stroke="#9A8F7B"/>
<path d="M1183.24 3.98098L1186.26 2.27732L1186.23 5.74127L1183.24 3.98098Z" stroke="#9A8F7B"/>
<path d="M1190.48 5.74123L1190.44 2.27729L1193.46 3.98099L1190.48 5.74123Z" stroke="#9A8F7B"/>
<path d="M1195.68 3.98098L1198.69 2.27732L1198.66 5.74127L1195.68 3.98098Z" stroke="#9A8F7B"/>
<path d="M1202.91 5.74123L1202.88 2.27729L1205.89 3.98099L1202.91 5.74123Z" stroke="#9A8F7B"/>
<path d="M1208.11 3.98098L1211.12 2.27732L1211.09 5.74127L1208.11 3.98098Z" stroke="#9A8F7B"/>
<path d="M1215.34 5.74123L1215.31 2.27729L1218.32 3.98099L1215.34 5.74123Z" stroke="#9A8F7B"/>
<path d="M1220.54 3.98098L1223.56 2.27732L1223.53 5.74127L1220.54 3.98098Z" stroke="#9A8F7B"/>
<path d="M1227.77 5.74123L1227.74 2.27729L1230.76 3.98099L1227.77 5.74123Z" stroke="#9A8F7B"/>
<path d="M1232.97 3.98098L1235.99 2.27732L1235.96 5.74127L1232.97 3.98098Z" stroke="#9A8F7B"/>
<path d="M1240.21 5.74123L1240.17 2.27729L1243.19 3.98099L1240.21 5.74123Z" stroke="#9A8F7B"/>
<path d="M1245.41 3.98098L1248.42 2.27732L1248.39 5.74127L1245.41 3.98098Z" stroke="#9A8F7B"/>
<path d="M1252.64 5.74123L1252.61 2.27729L1255.62 3.98099L1252.64 5.74123Z" stroke="#9A8F7B"/>
<path d="M1257.84 3.98098L1260.86 2.27732L1260.82 5.74127L1257.84 3.98098Z" stroke="#9A8F7B"/>
<path d="M1265.07 5.74123L1265.04 2.27729L1268.06 3.98099L1265.07 5.74123Z" stroke="#9A8F7B"/>
<path d="M1270.27 3.98098L1273.29 2.27732L1273.26 5.74127L1270.27 3.98098Z" stroke="#9A8F7B"/>
<path d="M1277.51 5.74123L1277.47 2.27729L1280.49 3.98099L1277.51 5.74123Z" stroke="#9A8F7B"/>
<path d="M1282.71 3.98098L1285.72 2.27732L1285.69 5.74127L1282.71 3.98098Z" stroke="#9A8F7B"/>
<path d="M1289.94 5.74123L1289.91 2.27729L1292.92 3.98099L1289.94 5.74123Z" stroke="#9A8F7B"/>
<path d="M1295.14 3.98098L1298.16 2.27732L1298.12 5.74127L1295.14 3.98098Z" stroke="#9A8F7B"/>
<path d="M1302.37 5.74123L1302.34 2.27729L1305.36 3.98099L1302.37 5.74123Z" stroke="#9A8F7B"/>
<path d="M1307.57 3.98098L1310.59 2.27732L1310.56 5.74127L1307.57 3.98098Z" stroke="#9A8F7B"/>
<path d="M1314.81 5.74123L1314.77 2.27729L1317.79 3.98099L1314.81 5.74123Z" stroke="#9A8F7B"/>
<path d="M1320.01 3.98098L1323.02 2.27732L1322.99 5.74127L1320.01 3.98098Z" stroke="#9A8F7B"/>
<path d="M1327.24 5.74123L1327.21 2.27729L1330.22 3.98099L1327.24 5.74123Z" stroke="#9A8F7B"/>
<path d="M1332.44 3.98098L1335.45 2.27732L1335.42 5.74127L1332.44 3.98098Z" stroke="#9A8F7B"/>
<path d="M1339.67 5.74123L1339.64 2.27729L1342.66 3.98099L1339.67 5.74123Z" stroke="#9A8F7B"/>
<path d="M1344.87 3.98098L1347.89 2.27732L1347.85 5.74127L1344.87 3.98098Z" stroke="#9A8F7B"/>
<path d="M1352.1 5.74123L1352.07 2.27729L1355.09 3.98099L1352.1 5.74123Z" stroke="#9A8F7B"/>
<path d="M1357.3 3.98098L1360.32 2.27732L1360.29 5.74127L1357.3 3.98098Z" stroke="#9A8F7B"/>
<path d="M1364.54 5.74123L1364.5 2.27729L1367.52 3.98099L1364.54 5.74123Z" stroke="#9A8F7B"/>
<path d="M1369.74 3.98098L1372.75 2.27732L1372.72 5.74127L1369.74 3.98098Z" stroke="#9A8F7B"/>
<path d="M1376.97 5.74123L1376.94 2.27729L1379.95 3.98099L1376.97 5.74123Z" stroke="#9A8F7B"/>
<path d="M1382.17 3.98098L1385.19 2.27732L1385.15 5.74127L1382.17 3.98098Z" stroke="#9A8F7B"/>
<path d="M1389.4 5.74123L1389.37 2.27729L1392.39 3.98099L1389.4 5.74123Z" stroke="#9A8F7B"/>
<path d="M1394.6 3.98098L1397.62 2.27732L1397.59 5.74127L1394.6 3.98098Z" stroke="#9A8F7B"/>
<path d="M1401.84 5.74123L1401.8 2.27729L1404.82 3.98099L1401.84 5.74123Z" stroke="#9A8F7B"/>
<path d="M1407.04 3.98098L1410.05 2.27732L1410.02 5.74127L1407.04 3.98098Z" stroke="#9A8F7B"/>
<path d="M1414.27 5.74123L1414.24 2.27729L1417.25 3.98099L1414.27 5.74123Z" stroke="#9A8F7B"/>
<path d="M1419.47 3.98098L1422.49 2.27732L1422.45 5.74127L1419.47 3.98098Z" stroke="#9A8F7B"/>
<path d="M1426.7 5.74123L1426.67 2.27729L1429.69 3.98099L1426.7 5.74123Z" stroke="#9A8F7B"/>
<path d="M1431.9 3.98098L1434.92 2.27732L1434.89 5.74127L1431.9 3.98098Z" stroke="#9A8F7B"/>
<path d="M1439.14 5.74123L1439.1 2.27729L1442.12 3.98099L1439.14 5.74123Z" stroke="#9A8F7B"/>
<path d="M1444.34 3.98098L1447.35 2.27732L1447.32 5.74127L1444.34 3.98098Z" stroke="#9A8F7B"/>
<path d="M1451.57 5.74123L1451.54 2.27729L1454.55 3.98099L1451.57 5.74123Z" stroke="#9A8F7B"/>
<path d="M1456.77 3.98098L1459.78 2.27732L1459.75 5.74127L1456.77 3.98098Z" stroke="#9A8F7B"/>
<path d="M1464 5.74123L1463.97 2.27729L1466.98 3.98099L1464 5.74123Z" stroke="#9A8F7B"/>
<path d="M1469.2 3.98098L1472.22 2.27732L1472.18 5.74127L1469.2 3.98098Z" stroke="#9A8F7B"/>
<path d="M1476.43 5.74123L1476.4 2.27729L1479.42 3.98099L1476.43 5.74123Z" stroke="#9A8F7B"/>
<path d="M1481.63 3.98098L1484.65 2.27732L1484.62 5.74127L1481.63 3.98098Z" stroke="#9A8F7B"/>
<path d="M1488.87 5.74123L1488.83 2.27729L1491.85 3.98099L1488.87 5.74123Z" stroke="#9A8F7B"/>
<path d="M1494.07 3.98098L1497.08 2.27732L1497.05 5.74127L1494.07 3.98098Z" stroke="#9A8F7B"/>
<path d="M1501.3 5.74123L1501.27 2.27729L1504.28 3.98099L1501.3 5.74123Z" stroke="#9A8F7B"/>
<path d="M1506.5 3.98098L1509.52 2.27732L1509.48 5.74127L1506.5 3.98098Z" stroke="#9A8F7B"/>
<path d="M1513.73 5.74123L1513.7 2.27729L1516.72 3.98099L1513.73 5.74123Z" stroke="#9A8F7B"/>
<path d="M1518.93 3.98098L1521.95 2.27732L1521.92 5.74127L1518.93 3.98098Z" stroke="#9A8F7B"/>
<path d="M1526.17 5.74123L1526.13 2.27729L1529.15 3.98099L1526.17 5.74123Z" stroke="#9A8F7B"/>
<path d="M1531.37 3.98098L1534.38 2.27732L1534.35 5.74127L1531.37 3.98098Z" stroke="#9A8F7B"/>
<path d="M1538.6 5.74123L1538.57 2.27729L1541.58 3.98099L1538.6 5.74123Z" stroke="#9A8F7B"/>
<path d="M1543.8 3.98098L1546.82 2.27732L1546.78 5.74127L1543.8 3.98098Z" stroke="#9A8F7B"/>
<path d="M1551.03 5.74123L1551 2.27729L1554.02 3.98099L1551.03 5.74123Z" stroke="#9A8F7B"/>
<path d="M1556.23 3.98098L1559.25 2.27732L1559.22 5.74127L1556.23 3.98098Z" stroke="#9A8F7B"/>
<path d="M1563.46 5.74123L1563.43 2.27729L1566.45 3.98099L1563.46 5.74123Z" stroke="#9A8F7B"/>
<path d="M1568.66 3.98098L1571.68 2.27732L1571.65 5.74127L1568.66 3.98098Z" stroke="#9A8F7B"/>
<path d="M1575.9 5.74123L1575.87 2.27729L1578.88 3.98099L1575.9 5.74123Z" stroke="#9A8F7B"/>
<path d="M1581.1 3.98098L1584.11 2.27732L1584.08 5.74127L1581.1 3.98098Z" stroke="#9A8F7B"/>
<path d="M1588.33 5.74123L1588.3 2.27729L1591.31 3.98099L1588.33 5.74123Z" stroke="#9A8F7B"/>
<path d="M1593.53 3.98098L1596.55 2.27732L1596.51 5.74127L1593.53 3.98098Z" stroke="#9A8F7B"/>
<path d="M1600.76 5.74123L1600.73 2.27729L1603.75 3.98099L1600.76 5.74123Z" stroke="#9A8F7B"/>
<path d="M1605.96 3.98098L1608.98 2.27732L1608.95 5.74127L1605.96 3.98098Z" stroke="#9A8F7B"/>
<path d="M1613.2 5.74123L1613.16 2.27729L1616.18 3.98099L1613.2 5.74123Z" stroke="#9A8F7B"/>
<path d="M1618.4 3.98098L1621.41 2.27732L1621.38 5.74127L1618.4 3.98098Z" stroke="#9A8F7B"/>
<path d="M1625.63 5.74123L1625.6 2.27729L1628.61 3.98099L1625.63 5.74123Z" stroke="#9A8F7B"/>
</svg>
