<svg width="625" height="28" viewBox="0 0 625 28" fill="none" xmlns="http://www.w3.org/2000/svg">
<path d="M282.309 0.742666C286.7 1.96766 284.982 6.45933 279.446 8.50099C274.865 10.2704 259.402 12.7204 246.613 13.8093C243.94 13.9454 248.522 14.8982 256.539 15.851C275.056 17.8927 285.173 21.1593 284.409 24.8343C283.646 28.5093 279.637 29.1899 278.11 25.7871C277.537 24.426 273.719 22.2482 269.52 21.0232C258.83 18.0288 229.747 17.3704 212.061 16.6677C198.359 16.1232 197.833 16.1232 196.027 16.1232C192.406 16.1232 45.6043 14.3538 42.741 16.3954C41.2138 17.4843 39.8776 17.4843 37.5869 16.1232C33.3873 13.6732 37.396 10.1343 42.3592 12.0399C44.459 12.8565 75.0016 13.401 120.052 13.2649C178.655 13.2649 192.977 13.8419 189.159 12.6169C185.371 12.1065 163.183 10.5752 117.725 9.55439C117.725 9.55439 87.4201 9.55439 82.5496 9.55439C77.679 9.55439 76.5967 9.55439 76.5967 8.53356C76.5967 7.51272 77.679 7.51272 83.0907 7.51272C88.5024 7.51272 115.561 7.51272 115.561 7.51272C163.783 8.60161 181.042 10.0648 187.536 10.5752C194.03 11.0856 238.786 12.7204 255.966 10.1343C271.619 7.82044 279.828 4.68989 278.301 1.69544C277.155 -0.21011 278.301 -0.482332 282.309 0.742666Z" fill="white"/>
<path d="M343.531 0.742636C339.14 1.96763 340.858 6.4593 346.394 8.50096C350.976 10.2704 366.438 12.7204 379.228 13.8093C381.9 13.9454 377.319 14.8982 369.301 15.851C350.785 17.8926 340.668 21.1593 341.431 24.8343C342.195 28.5093 346.203 29.1898 347.731 25.7871C348.303 24.426 352.121 22.2482 356.321 21.0232C367.011 18.0287 396.093 17.3703 413.779 16.6676C427.481 16.1232 428.007 16.1232 429.814 16.1232C433.434 16.1232 580.236 14.3537 583.099 16.3954C584.627 17.4843 585.963 17.4843 588.253 16.1232C592.453 13.6732 588.444 10.1343 583.481 12.0399C581.381 12.8565 550.839 13.401 505.788 13.2648C447.185 13.2648 432.863 13.8419 436.681 12.6169C440.469 12.1064 462.657 10.5752 508.115 9.55436C508.115 9.55436 538.42 9.55436 543.291 9.55436C548.161 9.55436 549.244 9.55436 549.244 8.53353C549.244 7.51269 548.161 7.51269 542.75 7.51269C537.338 7.51269 510.28 7.51269 510.28 7.51269C462.057 8.60158 444.798 10.0648 438.304 10.5752C431.81 11.0856 387.054 12.7204 369.874 10.1343C354.221 7.82041 346.013 4.68986 347.54 1.69541C348.685 -0.21014 347.54 -0.482363 343.531 0.742636Z" fill="white"/>
<path d="M24.7432 11.2427C19.9709 9.88157 17.6802 8.24824 17.6802 6.4788C17.6802 4.16491 16.7258 4.30102 9.09013 8.24824C4.31785 10.6982 0.500023 12.876 0.500023 13.1482C0.500023 13.4205 7.563 13.5566 16.1531 13.4205H31.9971L24.7432 11.2427Z" fill="white"/>
<path d="M25.2095 18.0969C20.4372 19.458 18.1465 21.0913 18.1465 22.8608C18.1465 25.1747 17.1921 25.0385 9.55644 21.0913C4.78416 18.6413 0.966331 16.4636 0.966331 16.1913C0.966331 15.9191 8.02931 15.783 16.6194 15.9191H32.4634L25.2095 18.0969Z" fill="white"/>
<path d="M600.257 10.2218C605.029 8.86073 607.32 7.2274 607.32 5.45795C607.32 3.14407 608.274 3.28018 615.91 7.2274C620.682 9.67739 624.5 11.8552 624.5 12.1274C624.5 12.3996 617.437 12.5357 608.847 12.3996H593.003L600.257 10.2218Z" fill="white"/>
<path d="M599.79 17.0761C604.563 18.4372 606.853 20.0705 606.853 21.8399C606.853 24.1538 607.808 24.0177 615.444 20.0705C620.216 17.6205 624.034 15.4427 624.034 15.1705C624.034 14.8983 616.971 14.7622 608.381 14.8983H592.537L599.79 17.0761Z" fill="white"/>
<path d="M287.462 11.2427C292.235 9.88157 294.525 8.24824 294.525 6.4788C294.525 4.16491 295.48 4.30102 303.115 8.24824C307.888 10.6982 311.706 12.876 311.706 13.1482C311.706 13.4205 304.643 13.5566 296.052 13.4205H280.208L287.462 11.2427Z" fill="white"/>
<path d="M286.996 18.0969C291.768 19.458 294.059 21.0913 294.059 22.8608C294.059 25.1747 295.013 25.0385 302.649 21.0913C307.421 18.6413 311.239 16.4636 311.239 16.1913C311.239 15.9191 304.176 15.783 295.586 15.9191H279.742L286.996 18.0969Z" fill="white"/>
<path d="M339.703 10.2218C334.93 8.86073 332.64 7.2274 332.64 5.45795C332.64 3.14407 331.685 3.28018 324.05 7.2274C319.277 9.67739 315.459 11.8552 315.459 12.1274C315.459 12.3996 322.522 12.5357 331.113 12.3996H346.957L339.703 10.2218Z" fill="white"/>
<path d="M340.168 17.0761C335.396 18.4372 333.106 20.0705 333.106 21.8399C333.106 24.1538 332.151 24.0177 324.515 20.0705C319.743 17.6205 315.925 15.4427 315.925 15.1705C315.925 14.8983 322.988 14.7622 331.578 14.8983H347.422L340.168 17.0761Z" fill="white"/>
</svg>
