<svg width="95" height="106" viewBox="0 0 95 106" fill="none" xmlns="http://www.w3.org/2000/svg">
<path d="M44.2331 31.385C43.0815 32.1254 42.7621 33.6724 43.5198 34.8404C44.2775 36.0084 45.8253 36.3551 46.9769 35.6148L44.2331 31.385ZM46.9769 35.6148C52.5877 32.0079 55.7253 27.9208 57.0114 23.6429C58.2929 19.3805 57.6324 15.2743 56.3074 11.8224C54.9884 8.38608 52.9685 5.47712 51.3237 3.4585C50.4943 2.44053 49.7426 1.62761 49.1928 1.06398C48.9174 0.781739 48.6915 0.560792 48.5303 0.40666C48.4496 0.329561 48.3851 0.269076 48.3385 0.225895C48.3152 0.204301 48.2963 0.187024 48.2822 0.174149C48.2752 0.167711 48.2693 0.162373 48.2646 0.158145C48.2623 0.156031 48.2603 0.154195 48.2586 0.152637C48.2577 0.151859 48.2566 0.150898 48.2562 0.15051C48.2552 0.149621 48.2543 0.148802 46.605 1.99987C44.9557 3.85094 44.9549 3.85026 44.9542 3.84965C44.9541 3.84953 44.9535 3.84898 44.9533 3.84875C44.9527 3.84829 44.9525 3.8481 44.9526 3.84817C44.9528 3.84831 44.9541 3.84953 44.9566 3.85179C44.9616 3.85632 44.9711 3.86507 44.985 3.87794C45.0128 3.9037 45.058 3.94594 45.1187 4.00397C45.2401 4.1201 45.4234 4.29906 45.6539 4.53537C46.1158 5.00885 46.7626 5.70765 47.48 6.58812C48.929 8.36637 50.5966 10.8012 51.6526 13.5524C52.7026 16.288 53.1046 19.2131 52.2299 22.1225C51.3598 25.0165 49.1224 28.2419 44.2331 31.385L46.9769 35.6148Z" fill="#423F38"/>
<g filter="url(#filter0_d_486_3244)">
<path fill-rule="evenodd" clip-rule="evenodd" d="M47.9591 80.1933L53.9946 85.3664C54.7461 86.0109 55.6212 86.4894 56.5631 86.771C57.505 87.0526 58.4927 87.1309 59.4621 87.0009C60.4316 86.8709 61.3611 86.5354 62.1905 86.0163C63.0199 85.4972 63.7306 84.806 64.2765 83.9876L73.2313 70.5553C74.1638 69.1558 74.5664 67.4582 74.3658 65.7713C74.1652 64.0844 73.3748 62.5202 72.1383 61.3633L50.0063 40.6645" fill="#254333"/>
<path fill-rule="evenodd" clip-rule="evenodd" d="M44.5925 30.811L32.3993 27.7582C30.5957 27.3066 28.6965 27.5981 27.1195 28.5686C25.5425 29.539 24.4168 31.109 23.9902 32.933L21.1059 45.2643C20.8928 46.1763 21.0466 47.1405 21.5335 47.945L39.1674 77.0874C40.1411 78.696 41.7011 79.8533 43.5043 80.3048C45.3075 80.7563 47.2064 80.465 48.7832 79.495L62.12 71.2877C63.6966 70.3172 64.8218 68.7475 65.2484 66.9238C65.675 65.1002 65.3679 63.1718 64.3946 61.5629L46.7607 32.4205C46.2741 31.6159 45.4941 31.037 44.5925 30.811Z" fill="#0A6A37"/>
<path d="M28.6884 35.9294C29.1326 34.0302 31.015 32.8718 32.8929 33.342C34.7708 33.8121 35.933 35.7329 35.4888 37.632C35.0446 39.5312 33.1622 40.6896 31.2843 40.2195C29.4064 39.7493 28.2442 37.8285 28.6884 35.9294Z" fill="#FDFDFE"/>
<g filter="url(#filter1_d_486_3244)">
<path d="M47.1687 46.3206L49.4969 47.5052L40.9151 65.1177L38.5869 63.9331L47.1687 46.3206ZM37.3334 50.1079C38.7745 49.6249 40.3344 50.4186 40.8257 51.8848C41.3171 53.351 40.5504 54.9244 39.1094 55.4073C37.6683 55.8903 36.1084 55.0966 35.617 53.6304C35.1257 52.1642 35.8923 50.5908 37.3334 50.1079ZM48.9745 56.031C50.4156 55.5481 51.9755 56.3418 52.4668 57.808C52.9582 59.2741 52.1915 60.8475 50.7505 61.3305C49.3094 61.8134 47.7495 61.0197 47.2581 59.5535C46.7668 58.0873 47.5334 56.514 48.9745 56.031ZM37.9254 51.8744C37.4479 52.0344 37.1905 52.5628 37.3533 53.0485C37.5161 53.5343 38.0399 53.8009 38.5174 53.6408C38.9948 53.4808 39.2523 52.9525 39.0895 52.4667C38.9267 51.9809 38.4028 51.7144 37.9254 51.8744ZM49.5665 57.7975C49.089 57.9575 48.8316 58.4859 48.9944 58.9717C49.1572 59.4575 49.681 59.724 50.1585 59.564C50.6359 59.404 50.8934 58.8756 50.7306 58.3898C50.5678 57.904 50.0439 57.6375 49.5665 57.7975Z" fill="white"/>
</g>
</g>
<path d="M19.0002 3.30255C19.0002 3.30255 3.50027 26.3026 33.0002 36.3025" stroke="#423F38" stroke-width="5" stroke-linecap="round"/>
<defs>
<filter id="filter0_d_486_3244" x="14.0122" y="27.5505" width="67.404" height="73.5114" filterUnits="userSpaceOnUse" color-interpolation-filters="sRGB">
<feFlood flood-opacity="0" result="BackgroundImageFix"/>
<feColorMatrix in="SourceAlpha" type="matrix" values="0 0 0 0 0 0 0 0 0 0 0 0 0 0 0 0 0 0 127 0" result="hardAlpha"/>
<feOffset dy="7"/>
<feGaussianBlur stdDeviation="3.5"/>
<feComposite in2="hardAlpha" operator="out"/>
<feColorMatrix type="matrix" values="0 0 0 0 0 0 0 0 0 0 0 0 0 0 0 0 0 0 0.25 0"/>
<feBlend mode="normal" in2="BackgroundImageFix" result="effect1_dropShadow_486_3244"/>
<feBlend mode="normal" in="SourceGraphic" in2="effect1_dropShadow_486_3244" result="shape"/>
</filter>
<filter id="filter1_d_486_3244" x="31.4684" y="46.3206" width="25.147" height="26.7971" filterUnits="userSpaceOnUse" color-interpolation-filters="sRGB">
<feFlood flood-opacity="0" result="BackgroundImageFix"/>
<feColorMatrix in="SourceAlpha" type="matrix" values="0 0 0 0 0 0 0 0 0 0 0 0 0 0 0 0 0 0 127 0" result="hardAlpha"/>
<feOffset dy="4"/>
<feGaussianBlur stdDeviation="2"/>
<feComposite in2="hardAlpha" operator="out"/>
<feColorMatrix type="matrix" values="0 0 0 0 0 0 0 0 0 0 0 0 0 0 0 0 0 0 0.25 0"/>
<feBlend mode="normal" in2="BackgroundImageFix" result="effect1_dropShadow_486_3244"/>
<feBlend mode="normal" in="SourceGraphic" in2="effect1_dropShadow_486_3244" result="shape"/>
</filter>
</defs>
</svg>
