<svg width="24" height="16" viewBox="0 0 24 16" fill="none" xmlns="http://www.w3.org/2000/svg">
<path d="M18.75 8.88886H5.25C4.83 8.88886 4.5 8.49775 4.5 7.99997C4.5 7.5022 4.83 7.11108 5.25 7.11108H18.75C19.17 7.11108 19.5 7.5022 19.5 7.99997C19.5 8.49775 19.17 8.88886 18.75 8.88886Z" fill="white"/>
<path d="M15 15.1112C14.9016 15.1126 14.8041 15.0896 14.7137 15.0437C14.6233 14.9977 14.542 14.9299 14.475 14.8445C14.175 14.4889 14.175 13.9378 14.475 13.5823L19.2 7.98228L14.475 2.38228C14.175 2.02673 14.175 1.47562 14.475 1.12006C14.775 0.764505 15.24 0.764505 15.54 1.12006L20.79 7.34228C21.09 7.69784 21.09 8.24895 20.79 8.60451L15.54 14.8267C15.39 15.0045 15.195 15.0934 15.015 15.0934L15 15.1112Z" fill="white"/>
</svg>
