<svg width="19" height="18" viewBox="0 0 19 18" fill="none" xmlns="http://www.w3.org/2000/svg">
<path d="M8.30606 13.2L15.3561 6.15L13.9561 4.75L8.30606 10.4L5.45605 7.55L4.05605 8.95L8.30606 13.2ZM2.70605 18C2.15605 18 1.68539 17.8043 1.29405 17.413C0.902721 17.0217 0.706721 16.5507 0.706055 16V2C0.706055 1.45 0.902055 0.979333 1.29405 0.588C1.68605 0.196667 2.15672 0.000666667 2.70605 0H16.7061C17.2561 0 17.7271 0.196 18.1191 0.588C18.5111 0.98 18.7067 1.45067 18.7061 2V16C18.7061 16.55 18.5104 17.021 18.1191 17.413C17.7277 17.805 17.2567 18.0007 16.7061 18H2.70605ZM2.70605 16H16.7061V2H2.70605V16Z" fill="#212121"/>
</svg>
