<svg width="17" height="18" viewBox="0 0 17 18" fill="none" xmlns="http://www.w3.org/2000/svg">
<g clip-path="url(#clip0_803_4793)">
<path d="M14.6939 8.27182V3.27273C14.6939 2.83874 14.5254 2.42252 14.2253 2.11564C13.9253 1.80877 13.5183 1.63636 13.0939 1.63636H9.74995C9.41395 0.687273 8.53395 0 7.49395 0C6.45395 0 5.57395 0.687273 5.23795 1.63636H1.89395C1.01395 1.63636 0.293945 2.37273 0.293945 3.27273V14.7273C0.293945 15.1613 0.462516 15.5775 0.762574 15.8844C1.06263 16.1912 1.4696 16.3636 1.89395 16.3636H6.78195C7.78995 17.3782 9.16595 18 10.6939 18C13.7899 18 16.2939 15.4391 16.2939 12.2727C16.2939 10.71 15.6859 9.30273 14.6939 8.27182ZM7.49395 1.63636C7.93395 1.63636 8.29395 2.00455 8.29395 2.45455C8.29395 2.90455 7.93395 3.27273 7.49395 3.27273C7.05395 3.27273 6.69395 2.90455 6.69395 2.45455C6.69395 2.00455 7.05395 1.63636 7.49395 1.63636ZM2.69395 4.90909H12.2939V6.54545H2.69395V4.90909ZM5.15795 13.0909H2.69395V11.4545H5.15795C5.11795 11.7245 5.09395 11.9945 5.09395 12.2727C5.09395 12.5509 5.11795 12.8209 5.15795 13.0909ZM2.69395 9.81818V8.18182H6.78195C6.29395 8.64818 5.92595 9.20455 5.63795 9.81818H2.69395ZM10.6939 16.3636C8.48595 16.3636 6.69395 14.5309 6.69395 12.2727C6.69395 10.0145 8.48595 8.18182 10.6939 8.18182C12.9019 8.18182 14.6939 10.0145 14.6939 12.2727C14.6939 14.5309 12.9019 16.3636 10.6939 16.3636ZM11.0939 12.4773L13.3819 13.86L12.7819 14.8582L9.89395 13.0909V9H11.0939V12.4773Z" fill="white"/>
</g>
<defs>
<clipPath id="clip0_803_4793">
<rect width="16" height="18" fill="white" transform="translate(0.293945)"/>
</clipPath>
</defs>
</svg>
