<svg width="19" height="18" viewBox="0 0 19 18" fill="none" xmlns="http://www.w3.org/2000/svg">
<path d="M17.106 0H2.70601C2.22862 0 1.77078 0.189642 1.43321 0.527208C1.09565 0.864773 0.906006 1.32261 0.906006 1.8V16.2C0.906006 16.6774 1.09565 17.1352 1.43321 17.4728C1.77078 17.8104 2.22862 18 2.70601 18H17.106C17.5834 18 18.0412 17.8104 18.3788 17.4728C18.7164 17.1352 18.906 16.6774 18.906 16.2V1.8C18.906 1.32261 18.7164 0.864773 18.3788 0.527208C18.0412 0.189642 17.5834 0 17.106 0ZM16.746 15.84H3.06601V2.16H16.746V15.84ZM6.26191 11.1159L8.37601 9L6.26191 6.8841C6.16145 6.78364 6.08175 6.66437 6.02739 6.53311C5.97302 6.40186 5.94503 6.26117 5.94503 6.1191C5.94503 5.83217 6.05902 5.55699 6.26191 5.3541C6.4648 5.15121 6.73998 5.03723 7.02691 5.03723C7.31384 5.03723 7.58902 5.15121 7.79191 5.3541L9.90601 7.47L12.0219 5.3532C12.2248 5.15031 12.5 5.03633 12.7869 5.03633C13.0738 5.03633 13.349 5.15031 13.5519 5.3532C13.7548 5.55609 13.8688 5.83127 13.8688 6.1182C13.8688 6.40513 13.7548 6.68031 13.5519 6.8832L11.436 9L13.5528 11.1159C13.7557 11.3188 13.8697 11.594 13.8697 11.8809C13.8697 12.1678 13.7557 12.443 13.5528 12.6459C13.3499 12.8488 13.0747 12.9628 12.7878 12.9628C12.5009 12.9628 12.2257 12.8488 12.0228 12.6459L9.90601 10.53L7.79011 12.6468C7.58722 12.8497 7.31204 12.9637 7.02511 12.9637C6.73818 12.9637 6.463 12.8497 6.26011 12.6468C6.05722 12.4439 5.94323 12.1687 5.94323 11.8818C5.94323 11.5949 6.05722 11.3197 6.26011 11.1168L6.26191 11.1159Z" fill="#212121"/>
</svg>
