<svg width="16" height="16" viewBox="0 0 16 16" fill="none" xmlns="http://www.w3.org/2000/svg">
<path fill-rule="evenodd" clip-rule="evenodd" d="M10.7699 2.11786H14.3605C14.8961 2.11786 15.3405 2.53357 15.4758 3.09607C15.5117 3.24821 15.5171 3.37571 15.4253 3.51125C15.3814 3.57675 15.322 3.63049 15.2523 3.66776C15.1827 3.70502 15.105 3.72468 15.026 3.725H14.9831V15.5H1.02852V3.725H0.974848C0.894018 3.72466 0.814565 3.70408 0.743769 3.66515C0.672973 3.62621 0.613098 3.57016 0.569629 3.50214C0.478388 3.36071 0.490196 3.22357 0.529376 3.06714C0.665164 2.51911 1.10366 2.11786 1.62964 2.11786H5.22025C5.49824 1.62746 5.90149 1.21937 6.38892 0.935167C6.87636 0.650967 7.43056 0.500812 7.99507 0.5C8.55957 0.500812 9.11377 0.650967 9.60121 0.935167C10.0886 1.21937 10.4919 1.62746 10.7699 2.11786ZM4.78552 15.2964C4.78552 15.1143 4.9358 14.9643 5.11882 14.9643H5.32223V3.725H4.78552V15.2964ZM10.8928 14.9643H10.6894V3.725H11.2261V15.2964C11.2261 15.1143 11.0758 14.9643 10.8928 14.9643ZM2.63866 10.8425V12.1191C2.63866 12.2102 2.56352 12.2857 2.46691 12.2857H1.73161C1.64037 12.2857 1.56523 12.2107 1.56523 12.1196V10.8425C1.56523 10.7514 1.64037 10.6764 1.73161 10.6764H2.47228C2.56352 10.6764 2.63866 10.7514 2.63866 10.8425ZM4.2488 10.8425V12.1191C4.2488 12.2102 4.17366 12.2857 4.07705 12.2857H3.34176C3.25051 12.2857 3.17537 12.2107 3.17537 12.1196V10.8425C3.17537 10.7514 3.25051 10.6764 3.34176 10.6764H4.08242C4.17366 10.6764 4.2488 10.7514 4.2488 10.8425ZM2.63866 8.15964V9.43678C2.63866 9.52786 2.56352 9.60286 2.46691 9.60286H1.73161C1.64037 9.60286 1.56523 9.52786 1.56523 9.43678V8.15964C1.56523 8.06857 1.64037 7.99357 1.73161 7.99357H2.47228C2.56352 7.99357 2.63866 8.06857 2.63866 8.15964ZM4.2488 8.15964V9.43678C4.2488 9.52786 4.17366 9.60286 4.07705 9.60286H3.34176C3.25051 9.60286 3.17537 9.52786 3.17537 9.43678V8.15964C3.17537 8.06857 3.25051 7.99357 3.34176 7.99357H4.08242C4.17366 7.99357 4.2488 8.06857 4.2488 8.15964ZM2.63866 5.48804V6.76464C2.63866 6.85571 2.56352 6.93071 2.46691 6.93071H1.73161C1.64037 6.93071 1.56523 6.85571 1.56523 6.76464V5.4875C1.56523 5.39643 1.64037 5.32143 1.73161 5.32143H2.47228C2.56352 5.32143 2.63866 5.39696 2.63866 5.48804ZM4.2488 5.4875V6.76411C4.2488 6.85518 4.17366 6.93018 4.07705 6.93018H3.34176C3.25051 6.93018 3.17537 6.85518 3.17537 6.76411V5.4875C3.17537 5.39643 3.25051 5.32143 3.34176 5.32143H4.08242C4.17366 5.32143 4.2488 5.39643 4.2488 5.4875ZM12.833 10.842V12.1186C12.833 12.2096 12.7579 12.2852 12.6666 12.2852H11.9292C11.9073 12.2852 11.8856 12.281 11.8653 12.2727C11.8451 12.2644 11.8267 12.2522 11.8112 12.2367C11.7957 12.2213 11.7834 12.203 11.775 12.1828C11.7666 12.1626 11.7623 12.141 11.7623 12.1191V10.842C11.7623 10.7509 11.8374 10.6759 11.9286 10.6759H12.6655C12.7568 10.6759 12.833 10.7509 12.833 10.842ZM14.4458 10.842V12.1186C14.4458 12.2096 14.3707 12.2852 14.2794 12.2852H13.5425C13.5206 12.2852 13.499 12.281 13.4787 12.2727C13.4585 12.2644 13.4401 12.2522 13.4245 12.2367C13.409 12.2213 13.3967 12.203 13.3883 12.1828C13.3799 12.1626 13.3756 12.141 13.3756 12.1191V10.842C13.3756 10.7509 13.4508 10.6759 13.542 10.6759H14.2789C14.3702 10.6759 14.4458 10.7509 14.4458 10.842ZM12.8325 8.15911V9.43625C12.8325 9.52732 12.7573 9.60232 12.6661 9.60232H11.9292C11.9073 9.60239 11.8856 9.59815 11.8653 9.58983C11.8451 9.58152 11.8267 9.5693 11.8112 9.55387C11.7957 9.53844 11.7834 9.52011 11.775 9.49993C11.7666 9.47974 11.7623 9.4581 11.7623 9.43625V8.15911C11.7623 8.06804 11.8374 7.99304 11.9286 7.99304H12.6655C12.7568 7.99304 12.8325 8.06804 12.8325 8.15911ZM14.4458 8.15911V9.43625C14.4458 9.52732 14.3707 9.60232 14.2794 9.60232H13.5425C13.5206 9.60239 13.499 9.59815 13.4787 9.58983C13.4585 9.58152 13.4401 9.5693 13.4245 9.55387C13.409 9.53844 13.3967 9.52011 13.3883 9.49993C13.3799 9.47974 13.3756 9.4581 13.3756 9.43625V8.15911C13.3756 8.06804 13.4508 7.99304 13.542 7.99304H14.2789C14.3702 7.99304 14.4458 8.06804 14.4458 8.15911ZM12.8325 5.4875V6.76411C12.8325 6.85518 12.7573 6.93018 12.6661 6.93018H11.9292C11.9073 6.93025 11.8856 6.92601 11.8653 6.91769C11.8451 6.90938 11.8267 6.89716 11.8112 6.88173C11.7957 6.8663 11.7834 6.84797 11.775 6.82778C11.7666 6.8076 11.7623 6.78596 11.7623 6.76411V5.4875C11.7623 5.39643 11.8374 5.32143 11.9286 5.32143H12.6655C12.7568 5.32143 12.8325 5.39643 12.8325 5.4875ZM14.4458 5.4875V6.76411C14.4458 6.85518 14.3707 6.93018 14.2794 6.93018H13.5425C13.5206 6.93025 13.499 6.92601 13.4787 6.91769C13.4585 6.90938 13.4401 6.89716 13.4245 6.88173C13.409 6.8663 13.3967 6.84797 13.3883 6.82778C13.3799 6.8076 13.3756 6.78596 13.3756 6.76411V5.4875C13.3756 5.39643 13.4508 5.32143 13.542 5.32143H14.2789C14.3702 5.32143 14.4458 5.39643 14.4458 5.4875ZM7.46909 6.55893V7.83393C7.46909 7.925 7.39395 8 7.30163 8H6.56311C6.54117 8.00014 6.51942 7.99595 6.49911 7.98767C6.4788 7.97938 6.46033 7.96717 6.44477 7.95174C6.42921 7.9363 6.41685 7.91795 6.40843 7.89773C6.4 7.87751 6.39566 7.85583 6.39566 7.83393V6.55893C6.39566 6.46786 6.4708 6.39286 6.56311 6.39286H7.30163C7.39341 6.39286 7.46909 6.46786 7.46909 6.55893ZM7.54262 13.8929H6.59049C6.56462 13.8927 6.53904 13.8875 6.51522 13.8774C6.4914 13.8674 6.46981 13.8527 6.4517 13.8343C6.43359 13.8158 6.41931 13.794 6.40969 13.77C6.40007 13.7461 6.3953 13.7205 6.39566 13.6946V11.2154H7.73744V13.6952C7.73744 13.8077 7.64781 13.8929 7.54262 13.8929ZM8.27416 10.6796V10.6786H7.73744V10.6796H6.39566V10.6786H5.83426C5.80236 10.6789 5.77072 10.6728 5.74117 10.6608C5.71162 10.6489 5.68474 10.6311 5.66208 10.6087C5.63943 10.5863 5.62145 10.5596 5.60918 10.5303C5.5969 10.5009 5.59059 10.4693 5.59059 10.4375C5.59059 10.3946 5.60669 10.3571 5.62279 10.325C5.62601 10.3221 5.6278 10.3202 5.62816 10.3191V10.3143C5.87328 9.90129 6.22192 9.55913 6.63976 9.32148C7.0576 9.08383 7.53025 8.95888 8.01117 8.95893C8.49209 8.95888 8.96473 9.08383 9.38257 9.32148C9.80042 9.55913 10.1491 9.90129 10.3942 10.3143C10.3963 10.3171 10.3972 10.3207 10.3969 10.325C10.3965 10.3293 10.3974 10.3329 10.3995 10.3357C10.4156 10.3625 10.421 10.4 10.421 10.4375C10.421 10.4693 10.4147 10.5009 10.4024 10.5303C10.3902 10.5596 10.3722 10.5863 10.3495 10.6087C10.3269 10.6311 10.3 10.6489 10.2704 10.6608C10.2409 10.6728 10.2092 10.6789 10.1773 10.6786H9.61594V10.6796H8.27416ZM8.27416 11.2154V13.6952C8.27416 13.8077 8.36379 13.8929 8.46898 13.8929H9.42111C9.52631 13.8929 9.61594 13.8071 9.61594 13.6946V11.2154H8.27416ZM9.61594 7.83393V6.55893C9.61594 6.46786 9.5408 6.39286 9.44849 6.39286H8.70997C8.66578 6.393 8.62344 6.4105 8.59209 6.44159C8.56075 6.47267 8.54294 6.51483 8.54251 6.55893V7.83393C8.54251 7.925 8.61765 8 8.70997 8H9.44849C9.54027 8 9.61594 7.925 9.61594 7.83393ZM8.81677 2.64286H8.80604C8.73648 2.64314 8.66986 2.67092 8.62077 2.72012C8.57168 2.76932 8.54412 2.83592 8.54412 2.90536V3.71429H7.46801V2.90536C7.46801 2.83574 7.4403 2.76897 7.39098 2.71974C7.34166 2.67051 7.27477 2.64286 7.20502 2.64286H7.19429C7.12472 2.64314 7.05811 2.67092 7.00902 2.72012C6.95993 2.76932 6.93237 2.83592 6.93237 2.90536V5.05893C6.93237 5.20357 7.05045 5.32143 7.19483 5.32143H7.20556C7.27522 5.32129 7.34197 5.29357 7.39117 5.24436C7.44038 5.19514 7.46801 5.12846 7.46801 5.05893V4.25536H8.54412V5.05893C8.54412 5.20357 8.66166 5.32143 8.80604 5.32143H8.81677C8.88643 5.32129 8.95319 5.29357 9.00239 5.24436C9.05159 5.19514 9.07923 5.12846 9.07923 5.05893V2.90536C9.07923 2.83583 9.05159 2.76914 9.00239 2.71993C8.95319 2.67072 8.88643 2.643 8.81677 2.64286Z" fill="white"/>
</svg>
