<svg width="15" height="16" viewBox="0 0 15 16" fill="none" xmlns="http://www.w3.org/2000/svg">
<path d="M5.61551 4.60005C6.19507 4.96857 6.67124 5.47255 7.00086 6.06626C7.33047 6.65998 7.5031 7.32465 7.50308 8C7.50308 6.58252 8.24785 5.33534 9.37526 4.61007C9.6112 4.41072 9.81227 4.21438 10 4.00701L5 4C5.19423 4.21371 5.397 4.41205 5.60833 4.59504L5.61551 4.60005Z" fill="white"/>
<path d="M11.474 6.06049C12.1777 5.65299 12.7507 5.11794 13.146 4.49915C13.5414 3.88037 13.748 3.19545 13.7489 2.50049V2.00049H14.9987V0.000488281H0V2.00049H1.2499V2.50049C1.24978 3.19304 1.45446 3.87578 1.84721 4.49294C2.23996 5.1101 2.80964 5.64416 3.50971 6.05149C3.92813 6.26087 4.28034 6.54485 4.5388 6.88123C4.79726 7.2176 4.95497 7.59725 4.99958 7.99049C4.94643 8.39253 4.78354 8.78031 4.52242 9.12643C4.2613 9.47255 3.90832 9.76854 3.48846 9.99349C2.80422 10.4006 2.24645 10.9284 1.85844 11.5359C1.47043 12.1434 1.26262 12.8143 1.25115 13.4965V13.9995H0.00124981V15.9995H15V13.9995H13.7501V13.4995C13.7405 12.8208 13.5362 12.153 13.1528 11.5475C12.7694 10.942 12.2173 10.4151 11.539 10.0075C11.1154 9.78548 10.758 9.49155 10.4923 9.14659C10.2266 8.80162 10.0591 8.41408 10.0017 8.01149C10.0408 7.61887 10.1931 7.23885 10.4466 6.90123C10.7001 6.5636 11.0479 6.27754 11.4628 6.06549L11.474 6.06049ZM8.74927 8.00049C8.79182 8.54449 8.98408 9.07425 9.31229 9.55189C9.6405 10.0295 10.0966 10.4433 10.6479 10.7635C11.1999 11.073 11.6545 11.4809 11.9757 11.955C12.297 12.4291 12.4761 12.9565 12.499 13.4955V14.0005H10.2866C9.41171 13.1305 8.14932 12.0005 7.49937 12.0005C6.84943 12.0005 5.58703 13.1305 4.71211 14.0005H2.49979V13.5005C2.52026 12.9648 2.69556 12.4401 3.01195 11.9677C3.32834 11.4952 3.77722 11.0879 4.32339 10.7775C4.88001 10.4591 5.34138 10.0458 5.67424 9.56751C6.00709 9.0892 6.20314 8.55775 6.24823 8.01149C6.21366 7.47945 6.02686 6.96086 5.70224 6.49569C5.37762 6.03052 4.92385 5.6312 4.37589 5.32849C3.79999 5.01431 3.32819 4.59283 3.00115 4.10035C2.6741 3.60787 2.50161 3.05916 2.49854 2.50149V2.00149H12.4977V2.50149C12.4961 3.0549 12.3271 3.59978 12.0052 4.08962C11.6833 4.57946 11.218 4.9997 10.6491 5.31449C10.0973 5.61478 9.63896 6.01236 9.30938 6.47664C8.97979 6.94091 8.78774 7.4595 8.74802 7.99249L8.74927 8.00049Z" fill="white"/>
</svg>
