<svg width="16" height="15" viewBox="0 0 16 15" fill="none" xmlns="http://www.w3.org/2000/svg">
<path d="M6.61111 4.44444C6.61111 4.22469 6.67628 4.00986 6.79837 3.82714C6.92046 3.64442 7.09399 3.50201 7.29702 3.41791C7.50005 3.33381 7.72346 3.31181 7.93899 3.35468C8.15453 3.39755 8.35251 3.50338 8.5079 3.65877C8.66329 3.81416 8.76911 4.01214 8.81199 4.22768C8.85486 4.44321 8.83285 4.66662 8.74876 4.86965C8.66466 5.07268 8.52225 5.24621 8.33952 5.3683C8.1568 5.49039 7.94198 5.55555 7.72222 5.55555C7.42754 5.55555 7.14492 5.43849 6.93655 5.23012C6.72818 5.02174 6.61111 4.73913 6.61111 4.44444ZM15.5 7.5C15.5 8.98336 15.0601 10.4334 14.236 11.6668C13.4119 12.9001 12.2406 13.8614 10.8701 14.4291C9.49968 14.9968 7.99168 15.1453 6.53682 14.8559C5.08197 14.5665 3.7456 13.8522 2.6967 12.8033C1.64781 11.7544 0.933503 10.418 0.644114 8.96318C0.354725 7.50832 0.50325 6.00032 1.07091 4.62987C1.63856 3.25943 2.59986 2.08809 3.83323 1.26398C5.06659 0.439867 6.51664 0 8 0C9.98845 0.00220571 11.8948 0.79309 13.3009 2.19914C14.7069 3.60518 15.4978 5.51155 15.5 7.5ZM13.8333 7.5C13.8333 6.34627 13.4912 5.21846 12.8502 4.25917C12.2093 3.29989 11.2982 2.55221 10.2323 2.1107C9.16642 1.66919 7.99353 1.55367 6.86198 1.77875C5.73042 2.00383 4.69102 2.5594 3.87521 3.37521C3.05941 4.19102 2.50384 5.23042 2.27876 6.36197C2.05368 7.49353 2.16919 8.66642 2.61071 9.73232C3.05222 10.7982 3.79989 11.7093 4.75918 12.3502C5.71846 12.9912 6.84628 13.3333 8 13.3333C9.54659 13.3317 11.0294 12.7166 12.123 11.623C13.2166 10.5294 13.8317 9.04659 13.8333 7.5ZM8.83333 10.0472V7.77778C8.83333 7.40942 8.68701 7.05615 8.42654 6.79568C8.16607 6.53522 7.8128 6.38889 7.44445 6.38889C7.24765 6.38859 7.05709 6.45796 6.90654 6.5847C6.75598 6.71144 6.65514 6.88737 6.62187 7.08134C6.5886 7.27531 6.62505 7.47479 6.72476 7.64446C6.82448 7.81412 6.98102 7.94303 7.16667 8.00833V10.2778C7.16667 10.6461 7.313 10.9994 7.57346 11.2599C7.83393 11.5203 8.1872 11.6667 8.55556 11.6667C8.75236 11.667 8.94291 11.5976 9.09347 11.4709C9.24402 11.3441 9.34487 11.1682 9.37814 10.9742C9.41141 10.7802 9.37496 10.5808 9.27524 10.4111C9.17553 10.2414 9.01898 10.1125 8.83333 10.0472Z" fill="white"/>
</svg>
