<svg width="20" height="20" viewBox="0 0 20 20" fill="none" xmlns="http://www.w3.org/2000/svg">
<path d="M10.8566 1.66675C11.7941 1.66925 12.2699 1.67425 12.6808 1.68591L12.8424 1.69175C13.0291 1.69841 13.2133 1.70675 13.4358 1.71675C14.3224 1.75841 14.9274 1.89841 15.4583 2.10425C16.0083 2.31591 16.4716 2.60258 16.9349 3.06508C17.3589 3.48153 17.6868 3.98547 17.8958 4.54175C18.1016 5.07258 18.2416 5.67758 18.2833 6.56508C18.2933 6.78675 18.3016 6.97091 18.3083 7.15841L18.3133 7.32008C18.3258 7.73008 18.3308 8.20591 18.3324 9.14341L18.3333 9.76508V10.8567C18.3353 11.4646 18.3289 12.0724 18.3141 12.6801L18.3091 12.8417C18.3024 13.0292 18.2941 13.2134 18.2841 13.4351C18.2424 14.3226 18.1008 14.9267 17.8958 15.4584C17.6868 16.0147 17.3589 16.5186 16.9349 16.9351C16.5185 17.359 16.0146 17.6869 15.4583 17.8959C14.9274 18.1017 14.3224 18.2417 13.4358 18.2834L12.8424 18.3084L12.6808 18.3134C12.2699 18.3251 11.7941 18.3309 10.8566 18.3326L10.2349 18.3334H9.14411C8.536 18.3356 7.92788 18.3292 7.31995 18.3142L7.15828 18.3092C6.96045 18.3018 6.76267 18.2931 6.56495 18.2834C5.67828 18.2417 5.07328 18.1017 4.54161 17.8959C3.98564 17.6868 3.48198 17.3589 3.06578 16.9351C2.64157 16.5187 2.31337 16.0148 2.10411 15.4584C1.89828 14.9276 1.75828 14.3226 1.71661 13.4351L1.69161 12.8417L1.68745 12.6801C1.67208 12.0724 1.66514 11.4646 1.66661 10.8567V9.14341C1.66431 8.53558 1.67042 7.92775 1.68495 7.32008L1.69078 7.15841C1.69745 6.97091 1.70578 6.78675 1.71578 6.56508C1.75745 5.67758 1.89745 5.07341 2.10328 4.54175C2.31302 3.98525 2.6418 3.48128 3.06661 3.06508C3.48257 2.64137 3.98593 2.31348 4.54161 2.10425C5.07328 1.89841 5.67745 1.75841 6.56495 1.71675C6.78661 1.70675 6.97161 1.69841 7.15828 1.69175L7.31995 1.68675C7.92761 1.67194 8.53544 1.66555 9.14328 1.66758L10.8566 1.66675ZM9.99995 5.83341C8.89488 5.83341 7.83507 6.2724 7.05367 7.0538C6.27227 7.8352 5.83328 8.89501 5.83328 10.0001C5.83328 11.1052 6.27227 12.165 7.05367 12.9464C7.83507 13.7278 8.89488 14.1667 9.99995 14.1667C11.105 14.1667 12.1648 13.7278 12.9462 12.9464C13.7276 12.165 14.1666 11.1052 14.1666 10.0001C14.1666 8.89501 13.7276 7.8352 12.9462 7.0538C12.1648 6.2724 11.105 5.83341 9.99995 5.83341ZM9.99995 7.50008C10.3283 7.50003 10.6534 7.56464 10.9567 7.69022C11.26 7.81581 11.5356 7.99991 11.7678 8.23202C12 8.46413 12.1842 8.7397 12.3099 9.04299C12.4356 9.34628 12.5003 9.67136 12.5004 9.99966C12.5004 10.328 12.4358 10.6531 12.3102 10.9564C12.1846 11.2597 12.0005 11.5354 11.7684 11.7676C11.5363 11.9997 11.2607 12.1839 10.9575 12.3096C10.6542 12.4353 10.3291 12.5 10.0008 12.5001C9.33774 12.5001 8.70185 12.2367 8.23301 11.7678C7.76417 11.299 7.50078 10.6631 7.50078 10.0001C7.50078 9.33704 7.76417 8.70115 8.23301 8.23231C8.70185 7.76347 9.33774 7.50008 10.0008 7.50008M14.3758 4.58341C14.0995 4.58341 13.8346 4.69316 13.6392 4.88851C13.4439 5.08386 13.3341 5.34881 13.3341 5.62508C13.3341 5.90135 13.4439 6.1663 13.6392 6.36165C13.8346 6.557 14.0995 6.66675 14.3758 6.66675C14.652 6.66675 14.917 6.557 15.1123 6.36165C15.3077 6.1663 15.4174 5.90135 15.4174 5.62508C15.4174 5.34881 15.3077 5.08386 15.1123 4.88851C14.917 4.69316 14.652 4.58341 14.3758 4.58341Z" fill="white"/>
</svg>
