<svg width="24" height="25" viewBox="0 0 24 25" fill="none" xmlns="http://www.w3.org/2000/svg">
<path d="M3.75 11C3.55109 11 3.36032 10.921 3.21967 10.7803C3.07902 10.6397 3 10.4489 3 10.25V4.2515C3 4.05258 3.07902 3.86182 3.21967 3.72117C3.36032 3.58051 3.55109 3.5015 3.75 3.5015H9.75C9.94891 3.5015 10.1397 3.58051 10.2803 3.72117C10.421 3.86182 10.5 4.05258 10.5 4.2515V10.25C10.5 10.4489 10.421 10.6397 10.2803 10.7803C10.1397 10.921 9.94891 11 9.75 11H3.75ZM14.25 11C14.0511 11 13.8603 10.921 13.7197 10.7803C13.579 10.6397 13.5 10.4489 13.5 10.25V4.2515C13.5 4.05258 13.579 3.86182 13.7197 3.72117C13.8603 3.58051 14.0511 3.5015 14.25 3.5015H20.2485C20.4474 3.5015 20.6382 3.58051 20.7788 3.72117C20.9195 3.86182 20.9985 4.05258 20.9985 4.2515V10.25C20.9985 10.4489 20.9195 10.6397 20.7788 10.7803C20.6382 10.921 20.4474 11 20.2485 11H14.25ZM3.75 21.5C3.55109 21.5 3.36032 21.421 3.21967 21.2803C3.07902 21.1397 3 20.9489 3 20.75V14.75C3 14.5511 3.07902 14.3603 3.21967 14.2197C3.36032 14.079 3.55109 14 3.75 14H9.75C9.94891 14 10.1397 14.079 10.2803 14.2197C10.421 14.3603 10.5 14.5511 10.5 14.75V20.75C10.5 20.9489 10.421 21.1397 10.2803 21.2803C10.1397 21.421 9.94891 21.5 9.75 21.5H3.75ZM14.25 21.5C14.0511 21.5 13.8603 21.421 13.7197 21.2803C13.579 21.1397 13.5 20.9489 13.5 20.75V14.75C13.5 14.5511 13.579 14.3603 13.7197 14.2197C13.8603 14.079 14.0511 14 14.25 14H20.2485C20.4474 14 20.6382 14.079 20.7788 14.2197C20.9195 14.3603 20.9985 14.5511 20.9985 14.75V20.75C20.9985 20.9489 20.9195 21.1397 20.7788 21.2803C20.6382 21.421 20.4474 21.5 20.2485 21.5H14.25Z" fill="white"/>
</svg>
