<svg width="17" height="18" viewBox="0 0 17 18" fill="none" xmlns="http://www.w3.org/2000/svg">
<path fill-rule="evenodd" clip-rule="evenodd" d="M0.706055 1.8C0.706055 1.32261 0.895697 0.864773 1.23326 0.527208C1.57083 0.189642 2.02867 0 2.50605 0H13.3061C13.7834 0 14.2413 0.189642 14.5788 0.527208C14.9164 0.864773 15.1061 1.32261 15.1061 1.8V7.2H13.3061V1.8H2.50605V16.2H7.00605V18H2.50605C2.02867 18 1.57083 17.8104 1.23326 17.4728C0.895697 17.1352 0.706055 16.6774 0.706055 16.2V1.8ZM4.30605 5.4C4.30605 5.1613 4.40088 4.93239 4.56966 4.7636C4.73844 4.59482 4.96736 4.5 5.20605 4.5H10.6061C10.8448 4.5 11.0737 4.59482 11.2425 4.7636C11.4112 4.93239 11.5061 5.1613 11.5061 5.4C11.5061 5.63869 11.4112 5.86761 11.2425 6.0364C11.0737 6.20518 10.8448 6.3 10.6061 6.3H5.20605C4.96736 6.3 4.73844 6.20518 4.56966 6.0364C4.40088 5.86761 4.30605 5.63869 4.30605 5.4ZM4.30605 9C4.30605 8.7613 4.40088 8.53239 4.56966 8.3636C4.73844 8.19482 4.96736 8.1 5.20605 8.1H6.10605C6.34475 8.1 6.57367 8.19482 6.74245 8.3636C6.91123 8.53239 7.00605 8.7613 7.00605 9C7.00605 9.23869 6.91123 9.46761 6.74245 9.6364C6.57367 9.80518 6.34475 9.9 6.10605 9.9H5.20605C4.96736 9.9 4.73844 9.80518 4.56966 9.6364C4.40088 9.46761 4.30605 9.23869 4.30605 9ZM12.4061 10.8C11.69 10.8 11.0032 11.0845 10.4969 11.5908C9.99052 12.0972 9.70605 12.7839 9.70605 13.5C9.70605 14.2161 9.99052 14.9028 10.4969 15.4092C11.0032 15.9155 11.69 16.2 12.4061 16.2C13.1221 16.2 13.8089 15.9155 14.3152 15.4092C14.8216 14.9028 15.1061 14.2161 15.1061 13.5C15.1061 12.7839 14.8216 12.0972 14.3152 11.5908C13.8089 11.0845 13.1221 10.8 12.4061 10.8ZM7.90605 13.5C7.90605 12.3065 8.38016 11.1619 9.22407 10.318C10.068 9.47411 11.2126 9 12.4061 9C13.5995 9 14.7441 9.47411 15.588 10.318C16.4319 11.1619 16.9061 12.3065 16.9061 13.5C16.9061 14.6935 16.4319 15.8381 15.588 16.682C14.7441 17.5259 13.5995 18 12.4061 18C11.2126 18 10.068 17.5259 9.22407 16.682C8.38016 15.8381 7.90605 14.6935 7.90605 13.5ZM12.4061 11.25C12.6447 11.25 12.8737 11.3448 13.0425 11.5136C13.2112 11.6824 13.3061 11.9113 13.3061 12.15V12.6C13.5448 12.6 13.7737 12.6948 13.9425 12.8636C14.1112 13.0324 14.2061 13.2613 14.2061 13.5C14.2061 13.7387 14.1112 13.9676 13.9425 14.1364C13.7737 14.3052 13.5448 14.4 13.3061 14.4H12.4061C12.1674 14.4 11.9384 14.3052 11.7697 14.1364C11.6009 13.9676 11.5061 13.7387 11.5061 13.5V12.15C11.5061 11.9113 11.6009 11.6824 11.7697 11.5136C11.9384 11.3448 12.1674 11.25 12.4061 11.25Z" fill="#212121"/>
</svg>
