<svg width="15" height="16" viewBox="0 0 15 16" fill="none" xmlns="http://www.w3.org/2000/svg">
<path d="M10.2634 1.59084C9.56172 0.887386 8.5817 0.5 7.5 0.5C6.41253 0.5 5.42926 0.885042 4.73085 1.58415C4.02486 2.29095 3.68087 3.25155 3.76164 4.28882C3.92173 6.33523 5.59873 7.99996 7.5 7.99996C9.40127 7.99996 11.0754 6.33557 11.238 4.28949C11.3198 3.26159 10.9737 2.303 10.2634 1.59084ZM13.846 15.4999H1.15402C0.987895 15.5019 0.823376 15.4695 0.672434 15.405C0.521493 15.3406 0.387925 15.2457 0.281448 15.1273C0.0470799 14.8671 -0.0473886 14.5119 0.0225614 14.1526C0.32688 12.585 1.27661 11.2681 2.76936 10.3437C4.09553 9.52305 5.77541 9.07138 7.5 9.07138C9.22459 9.07138 10.9045 9.52339 12.2306 10.3437C13.7234 11.2678 14.6731 12.5846 14.9774 14.1523C15.0474 14.5115 14.9529 14.8668 14.7186 15.1269C14.6121 15.2454 14.4786 15.3404 14.3276 15.4049C14.1767 15.4694 14.0121 15.5019 13.846 15.4999Z" fill="white"/>
</svg>
