<svg width="15" height="16" viewBox="0 0 15 16" fill="none" xmlns="http://www.w3.org/2000/svg">
<path d="M7.35714 0C9.17577 0 10.9199 0.722447 12.2059 2.00841C13.4918 3.29437 14.2143 5.03852 14.2143 6.85714C14.2143 9.696 12.0505 12.6705 7.81429 15.8476C7.6824 15.9465 7.522 16 7.35714 16C7.19229 16 7.03188 15.9465 6.9 15.8476C2.66381 12.6705 0.5 9.696 0.5 6.85714C0.5 5.03852 1.22245 3.29437 2.50841 2.00841C3.79437 0.722447 5.53852 0 7.35714 0ZM7.35714 4.57143C6.75093 4.57143 6.16955 4.81224 5.7409 5.2409C5.31224 5.66955 5.07143 6.25093 5.07143 6.85714C5.07143 7.46335 5.31224 8.04473 5.7409 8.47339C6.16955 8.90204 6.75093 9.14286 7.35714 9.14286C7.96335 9.14286 8.54473 8.90204 8.97339 8.47339C9.40204 8.04473 9.64286 7.46335 9.64286 6.85714C9.64286 6.25093 9.40204 5.66955 8.97339 5.2409C8.54473 4.81224 7.96335 4.57143 7.35714 4.57143Z" fill="white"/>
</svg>
