<svg width="15" height="16" viewBox="0 0 15 16" fill="none" xmlns="http://www.w3.org/2000/svg">
<path d="M7.5 0.5C3.35805 0.5 0 3.85805 0 8C0 12.1419 3.35805 15.5 7.5 15.5C11.6419 15.5 15 12.1419 15 8C15 3.85805 11.6419 0.5 7.5 0.5ZM10.9615 9.15385H7.5C7.34699 9.15385 7.20025 9.09306 7.09205 8.98487C6.98386 8.87668 6.92308 8.72993 6.92308 8.57692V3.38462C6.92308 3.23161 6.98386 3.08486 7.09205 2.97667C7.20025 2.86848 7.34699 2.80769 7.5 2.80769C7.65301 2.80769 7.79975 2.86848 7.90795 2.97667C8.01614 3.08486 8.07692 3.23161 8.07692 3.38462V8H10.9615C11.1145 8 11.2613 8.06078 11.3695 8.16898C11.4777 8.27717 11.5385 8.42391 11.5385 8.57692C11.5385 8.72993 11.4777 8.87668 11.3695 8.98487C11.2613 9.09306 11.1145 9.15385 10.9615 9.15385Z" fill="white"/>
</svg>
