<svg width="181" height="40" viewBox="0 0 181 40" fill="none" xmlns="http://www.w3.org/2000/svg">
<g clip-path="url(#clip0_247_168)">
<path d="M0.846946 19.7606C0.846016 23.1213 1.72416 26.4029 3.39392 29.2953L0.687256 39.1778L10.8007 36.526C13.598 38.0488 16.7321 38.8467 19.917 38.8469H19.9254C30.4393 38.8469 38.998 30.2914 39.0024 19.7756C39.0045 14.68 37.0218 9.88832 33.4197 6.28336C29.8181 2.67871 25.0282 0.692511 19.9246 0.690186C9.40943 0.690186 0.851442 9.24522 0.847101 19.7606" fill="url(#paint0_linear_247_168)"/>
<path d="M0.165891 19.7544C0.164806 23.2361 1.07442 26.635 2.80372 29.631L0 39.8678L10.4761 37.1209C13.3626 38.6947 16.6126 39.5245 19.9195 39.5257H19.9281C30.8192 39.5257 39.6853 30.6625 39.6899 19.7702C39.6918 14.4915 37.6378 9.5276 33.907 5.79349C30.1757 2.05984 25.2144 0.00217054 19.9281 0C9.03504 0 0.170233 8.86202 0.165891 19.7544ZM6.40481 29.115L6.01364 28.4941C4.3693 25.8795 3.5014 22.8581 3.50264 19.7557C3.50605 10.7022 10.8741 3.33643 19.9343 3.33643C24.3219 3.33829 28.4453 5.04868 31.5467 8.15194C34.6479 11.2555 36.3544 15.3811 36.3533 19.769C36.3493 28.8225 28.9811 36.1891 19.9281 36.1891H19.9216C16.9738 36.1876 14.0828 35.396 11.5616 33.9L10.9616 33.5442L4.74481 35.1741L6.40481 29.115Z" fill="url(#paint1_linear_247_168)"/>
<path d="M14.9888 11.4958C14.6189 10.6736 14.2296 10.657 13.8778 10.6426C13.5897 10.6302 13.2604 10.6311 12.9314 10.6311C12.6021 10.6311 12.0671 10.755 11.6148 11.2488C11.1621 11.7431 9.88647 12.9375 9.88647 15.3668C9.88647 17.7961 11.6559 20.144 11.9026 20.4738C12.1496 20.8029 15.3186 25.9477 20.3375 27.9269C24.5086 29.5717 25.3575 29.2446 26.2628 29.1621C27.1682 29.08 29.1843 27.968 29.5956 26.815C30.0072 25.6621 30.0072 24.6739 29.8838 24.4674C29.7604 24.2617 29.4311 24.1381 28.9373 23.8913C28.4435 23.6445 26.0158 22.4497 25.5632 22.2849C25.1105 22.1203 24.7814 22.0381 24.4521 22.5325C24.1228 23.0262 23.1772 24.1381 22.889 24.4674C22.601 24.7975 22.3128 24.8386 21.8192 24.5916C21.3251 24.3438 19.7348 23.8231 17.8482 22.141C16.3803 20.8322 15.3893 19.2159 15.1012 18.7215C14.8131 18.2279 15.0704 17.9603 15.3179 17.7142C15.5398 17.493 15.8119 17.1376 16.059 16.8494C16.3052 16.561 16.3874 16.3553 16.5521 16.026C16.7169 15.6964 16.6344 15.408 16.5111 15.161C16.3874 14.9141 15.4279 12.4721 14.9888 11.4958Z" fill="white"/>
</g>
<path d="M30 0H169C175.627 0 181 5.37258 181 12V28C181 34.6274 175.627 40 169 40H30C30 40 42.8401 33.5 42.8401 19.5C42.8401 5.5 30 0 30 0Z" fill="url(#paint2_linear_247_168)"/>
<path d="M64.04 14.432V26H61.88V20.944H56.448V26H54.288V14.432H56.448V19.408H61.88V14.432H64.04ZM73.2199 17.792V26H72.0119C71.7505 26 71.5852 25.88 71.5159 25.64L71.3799 24.984C71.0439 25.3253 70.6732 25.6027 70.2679 25.816C69.8625 26.024 69.3852 26.128 68.8359 26.128C68.3879 26.128 67.9905 26.0533 67.6439 25.904C67.3025 25.7493 67.0145 25.5333 66.7799 25.256C66.5452 24.9787 66.3665 24.6507 66.2439 24.272C66.1265 23.888 66.0679 23.4667 66.0679 23.008V17.792H68.0439V23.008C68.0439 23.5093 68.1585 23.8987 68.3879 24.176C68.6225 24.448 68.9719 24.584 69.4359 24.584C69.7772 24.584 70.0972 24.5093 70.3959 24.36C70.6945 24.2053 70.9772 23.9947 71.2439 23.728V17.792H73.2199ZM77.1551 23.872C77.3791 24.144 77.6218 24.336 77.8831 24.448C78.1498 24.56 78.4298 24.616 78.7231 24.616C79.0271 24.616 79.2991 24.5627 79.5391 24.456C79.7845 24.344 79.9925 24.1733 80.1631 23.944C80.3338 23.7093 80.4645 23.4133 80.5551 23.056C80.6458 22.6933 80.6911 22.2613 80.6911 21.76C80.6911 20.8587 80.5418 20.208 80.2431 19.808C79.9445 19.4027 79.5151 19.2 78.9551 19.2C78.5765 19.2 78.2458 19.288 77.9631 19.464C77.6805 19.6347 77.4111 19.8773 77.1551 20.192V23.872ZM77.1551 18.8C77.4858 18.4533 77.8511 18.1787 78.2511 17.976C78.6565 17.768 79.1178 17.664 79.6351 17.664C80.1098 17.664 80.5365 17.7573 80.9151 17.944C81.2991 18.1307 81.6245 18.4 81.8911 18.752C82.1631 19.0987 82.3711 19.52 82.5151 20.016C82.6591 20.512 82.7311 21.0693 82.7311 21.688C82.7311 22.3547 82.6485 22.96 82.4831 23.504C82.3178 24.048 82.0805 24.5147 81.7711 24.904C81.4671 25.288 81.0991 25.5867 80.6671 25.8C80.2351 26.0133 79.7551 26.12 79.2271 26.12C78.9711 26.12 78.7391 26.0933 78.5311 26.04C78.3231 25.992 78.1311 25.9227 77.9551 25.832C77.7791 25.7413 77.6165 25.632 77.4671 25.504C77.3231 25.3707 77.1845 25.224 77.0511 25.064L76.9631 25.616C76.9311 25.7547 76.8751 25.8533 76.7951 25.912C76.7205 25.9707 76.6165 26 76.4831 26H75.1791V14.112H77.1551V18.8ZM91.3293 17.792V26H90.1213C89.8599 26 89.6946 25.88 89.6253 25.64L89.4893 24.984C89.1533 25.3253 88.7826 25.6027 88.3773 25.816C87.9719 26.024 87.4946 26.128 86.9453 26.128C86.4973 26.128 86.0999 26.0533 85.7533 25.904C85.4119 25.7493 85.1239 25.5333 84.8893 25.256C84.6546 24.9787 84.4759 24.6507 84.3533 24.272C84.2359 23.888 84.1773 23.4667 84.1773 23.008V17.792H86.1533V23.008C86.1533 23.5093 86.2679 23.8987 86.4973 24.176C86.7319 24.448 87.0813 24.584 87.5453 24.584C87.8866 24.584 88.2066 24.5093 88.5053 24.36C88.8039 24.2053 89.0866 23.9947 89.3533 23.728V17.792H91.3293ZM95.1365 18.8C95.3018 18.6347 95.4752 18.4827 95.6565 18.344C95.8432 18.2 96.0378 18.08 96.2405 17.984C96.4485 17.8827 96.6698 17.8053 96.9045 17.752C97.1392 17.6933 97.3952 17.664 97.6725 17.664C98.1205 17.664 98.5178 17.7413 98.8645 17.896C99.2112 18.0453 99.4992 18.2587 99.7285 18.536C99.9632 18.808 100.139 19.136 100.257 19.52C100.379 19.8987 100.441 20.3173 100.441 20.776V26H98.4645V20.776C98.4645 20.2747 98.3498 19.888 98.1205 19.616C97.8912 19.3387 97.5418 19.2 97.0725 19.2C96.7312 19.2 96.4112 19.2773 96.1125 19.432C95.8138 19.5867 95.5312 19.7973 95.2645 20.064V26H93.2885V17.792H94.4965C94.7525 17.792 94.9205 17.912 95.0005 18.152L95.1365 18.8ZM105.32 21.696C105.565 21.696 105.778 21.664 105.96 21.6C106.141 21.5307 106.29 21.4373 106.408 21.32C106.53 21.2027 106.621 21.0613 106.68 20.896C106.744 20.7307 106.776 20.5493 106.776 20.352C106.776 19.9467 106.653 19.6267 106.408 19.392C106.168 19.152 105.805 19.032 105.32 19.032C104.834 19.032 104.469 19.152 104.224 19.392C103.984 19.6267 103.864 19.9467 103.864 20.352C103.864 20.544 103.893 20.7227 103.952 20.888C104.016 21.0533 104.106 21.1973 104.224 21.32C104.346 21.4373 104.498 21.5307 104.68 21.6C104.866 21.664 105.08 21.696 105.32 21.696ZM107.552 26.368C107.552 26.208 107.504 26.0773 107.408 25.976C107.312 25.8747 107.181 25.7973 107.016 25.744C106.85 25.6853 106.656 25.6427 106.432 25.616C106.213 25.5893 105.978 25.5707 105.728 25.56C105.482 25.544 105.226 25.5307 104.96 25.52C104.698 25.5093 104.442 25.488 104.192 25.456C103.973 25.5787 103.794 25.7227 103.656 25.888C103.522 26.0533 103.456 26.2453 103.456 26.464C103.456 26.608 103.49 26.7413 103.56 26.864C103.634 26.992 103.749 27.1013 103.904 27.192C104.064 27.2827 104.269 27.352 104.52 27.4C104.77 27.4533 105.077 27.48 105.44 27.48C105.808 27.48 106.125 27.4507 106.392 27.392C106.658 27.3387 106.877 27.2613 107.048 27.16C107.224 27.064 107.352 26.9467 107.432 26.808C107.512 26.6747 107.552 26.528 107.552 26.368ZM109.52 18.072V18.808C109.52 19.0427 109.378 19.1867 109.096 19.24L108.36 19.376C108.472 19.6587 108.528 19.968 108.528 20.304C108.528 20.7093 108.445 21.0773 108.28 21.408C108.12 21.7333 107.896 22.0107 107.608 22.24C107.32 22.4693 106.978 22.648 106.584 22.776C106.194 22.8987 105.773 22.96 105.32 22.96C105.16 22.96 105.005 22.952 104.856 22.936C104.706 22.92 104.56 22.8987 104.416 22.872C104.16 23.0267 104.032 23.2 104.032 23.392C104.032 23.5573 104.106 23.68 104.256 23.76C104.41 23.8347 104.613 23.888 104.864 23.92C105.114 23.952 105.4 23.9733 105.72 23.984C106.04 23.9893 106.368 24.0053 106.704 24.032C107.04 24.0587 107.368 24.1067 107.688 24.176C108.008 24.24 108.293 24.344 108.544 24.488C108.794 24.632 108.994 24.8293 109.144 25.08C109.298 25.3253 109.376 25.6427 109.376 26.032C109.376 26.3947 109.285 26.7467 109.104 27.088C108.928 27.4293 108.669 27.7333 108.328 28C107.992 28.2667 107.576 28.48 107.08 28.64C106.589 28.8053 106.029 28.888 105.4 28.888C104.781 28.888 104.242 28.8267 103.784 28.704C103.325 28.5867 102.944 28.4267 102.64 28.224C102.336 28.0267 102.109 27.7973 101.96 27.536C101.81 27.2747 101.736 27.0027 101.736 26.72C101.736 26.336 101.85 26.016 102.08 25.76C102.314 25.4987 102.634 25.2907 103.04 25.136C102.821 25.024 102.648 24.8747 102.52 24.688C102.392 24.5013 102.328 24.256 102.328 23.952C102.328 23.8293 102.349 23.704 102.392 23.576C102.44 23.4427 102.506 23.312 102.592 23.184C102.682 23.056 102.794 22.936 102.928 22.824C103.061 22.7067 103.218 22.6027 103.4 22.512C102.984 22.288 102.656 21.9893 102.416 21.616C102.181 21.2427 102.064 20.8053 102.064 20.304C102.064 19.8987 102.144 19.5333 102.304 19.208C102.469 18.8773 102.696 18.5973 102.984 18.368C103.277 18.1333 103.621 17.9547 104.016 17.832C104.416 17.7093 104.85 17.648 105.32 17.648C105.672 17.648 106.002 17.6853 106.312 17.76C106.621 17.8293 106.904 17.9333 107.16 18.072H109.52ZM112.821 17.792V26H110.837V17.792H112.821ZM113.093 15.4C113.093 15.5707 113.058 15.7307 112.989 15.88C112.92 16.0293 112.826 16.16 112.709 16.272C112.597 16.384 112.464 16.4747 112.309 16.544C112.154 16.608 111.989 16.64 111.813 16.64C111.642 16.64 111.48 16.608 111.325 16.544C111.176 16.4747 111.045 16.384 110.933 16.272C110.821 16.16 110.73 16.0293 110.661 15.88C110.597 15.7307 110.565 15.5707 110.565 15.4C110.565 15.224 110.597 15.0587 110.661 14.904C110.73 14.7493 110.821 14.616 110.933 14.504C111.045 14.392 111.176 14.304 111.325 14.24C111.48 14.1707 111.642 14.136 111.813 14.136C111.989 14.136 112.154 14.1707 112.309 14.24C112.464 14.304 112.597 14.392 112.709 14.504C112.826 14.616 112.92 14.7493 112.989 14.904C113.058 15.0587 113.093 15.224 113.093 15.4ZM121.19 19.28H121.694C121.897 19.28 122.065 19.2533 122.198 19.2C122.331 19.1413 122.446 19.0507 122.542 18.928L125.734 14.888C125.867 14.7173 126.006 14.6 126.15 14.536C126.299 14.4667 126.486 14.432 126.71 14.432H128.566L124.67 19.24C124.441 19.5333 124.203 19.7413 123.958 19.864C124.134 19.928 124.291 20.0187 124.43 20.136C124.574 20.248 124.71 20.3973 124.838 20.584L128.854 26H126.958C126.702 26 126.51 25.9653 126.382 25.896C126.259 25.8213 126.155 25.7147 126.07 25.576L122.798 21.304C122.697 21.16 122.579 21.0587 122.446 21C122.313 20.9413 122.121 20.912 121.87 20.912H121.19V26H119.038V14.432H121.19V19.28ZM134 22.496C133.429 22.5227 132.949 22.5733 132.56 22.648C132.17 22.7173 131.858 22.808 131.624 22.92C131.389 23.032 131.221 23.1627 131.12 23.312C131.018 23.4613 130.968 23.624 130.968 23.8C130.968 24.1467 131.069 24.3947 131.272 24.544C131.48 24.6933 131.749 24.768 132.08 24.768C132.485 24.768 132.834 24.696 133.128 24.552C133.426 24.4027 133.717 24.1787 134 23.88V22.496ZM129.472 18.936C130.416 18.072 131.552 17.64 132.88 17.64C133.36 17.64 133.789 17.72 134.168 17.88C134.546 18.0347 134.866 18.2533 135.128 18.536C135.389 18.8133 135.586 19.1467 135.72 19.536C135.858 19.9253 135.928 20.352 135.928 20.816V26H135.032C134.845 26 134.701 25.9733 134.6 25.92C134.498 25.8613 134.418 25.7467 134.36 25.576L134.184 24.984C133.976 25.1707 133.773 25.336 133.576 25.48C133.378 25.6187 133.173 25.736 132.96 25.832C132.746 25.928 132.517 26 132.272 26.048C132.032 26.1013 131.765 26.128 131.472 26.128C131.125 26.128 130.805 26.0827 130.512 25.992C130.218 25.896 129.965 25.7547 129.752 25.568C129.538 25.3813 129.373 25.1493 129.256 24.872C129.138 24.5947 129.08 24.272 129.08 23.904C129.08 23.696 129.114 23.4907 129.184 23.288C129.253 23.08 129.365 22.8827 129.52 22.696C129.68 22.5093 129.885 22.3333 130.136 22.168C130.386 22.0027 130.693 21.8587 131.056 21.736C131.424 21.6133 131.85 21.5147 132.336 21.44C132.821 21.36 133.376 21.312 134 21.296V20.816C134 20.2667 133.882 19.8613 133.648 19.6C133.413 19.3333 133.074 19.2 132.632 19.2C132.312 19.2 132.045 19.2373 131.832 19.312C131.624 19.3867 131.44 19.472 131.28 19.568C131.12 19.6587 130.973 19.7413 130.84 19.816C130.712 19.8907 130.568 19.928 130.408 19.928C130.269 19.928 130.152 19.8933 130.056 19.824C129.96 19.7493 129.882 19.664 129.824 19.568L129.472 18.936ZM137.789 26V17.792H138.997C139.253 17.792 139.421 17.912 139.501 18.152L139.629 18.76C139.773 18.6 139.922 18.4533 140.077 18.32C140.237 18.1867 140.405 18.072 140.581 17.976C140.762 17.88 140.954 17.8053 141.157 17.752C141.365 17.6933 141.591 17.664 141.837 17.664C142.354 17.664 142.778 17.8053 143.109 18.088C143.445 18.3653 143.695 18.736 143.861 19.2C143.989 18.928 144.149 18.696 144.341 18.504C144.533 18.3067 144.743 18.1467 144.973 18.024C145.202 17.9013 145.445 17.8107 145.701 17.752C145.962 17.6933 146.223 17.664 146.485 17.664C146.938 17.664 147.341 17.7333 147.693 17.872C148.045 18.0107 148.341 18.2133 148.581 18.48C148.821 18.7467 149.002 19.072 149.125 19.456C149.253 19.84 149.317 20.28 149.317 20.776V26H147.341V20.776C147.341 20.2533 147.226 19.8613 146.997 19.6C146.767 19.3333 146.431 19.2 145.989 19.2C145.786 19.2 145.597 19.2347 145.421 19.304C145.25 19.3733 145.098 19.4747 144.965 19.608C144.837 19.736 144.735 19.8987 144.661 20.096C144.586 20.2933 144.549 20.52 144.549 20.776V26H142.565V20.776C142.565 20.2267 142.453 19.8267 142.229 19.576C142.01 19.3253 141.687 19.2 141.261 19.2C140.973 19.2 140.703 19.272 140.453 19.416C140.207 19.5547 139.978 19.7467 139.765 19.992V26H137.789ZM153.243 17.792V26H151.259V17.792H153.243ZM153.515 15.4C153.515 15.5707 153.48 15.7307 153.411 15.88C153.341 16.0293 153.248 16.16 153.131 16.272C153.019 16.384 152.885 16.4747 152.731 16.544C152.576 16.608 152.411 16.64 152.235 16.64C152.064 16.64 151.901 16.608 151.747 16.544C151.597 16.4747 151.467 16.384 151.355 16.272C151.243 16.16 151.152 16.0293 151.083 15.88C151.019 15.7307 150.987 15.5707 150.987 15.4C150.987 15.224 151.019 15.0587 151.083 14.904C151.152 14.7493 151.243 14.616 151.355 14.504C151.467 14.392 151.597 14.304 151.747 14.24C151.901 14.1707 152.064 14.136 152.235 14.136C152.411 14.136 152.576 14.1707 152.731 14.24C152.885 14.304 153.019 14.392 153.131 14.504C153.248 14.616 153.341 14.7493 153.411 14.904C153.48 15.0587 153.515 15.224 153.515 15.4Z" fill="white"/>
<defs>
<linearGradient id="paint0_linear_247_168" x1="19.8449" y1="0.690186" x2="19.8449" y2="39.1778" gradientUnits="userSpaceOnUse">
<stop stop-color="#0A6A37"/>
<stop offset="1" stop-color="#14D06C"/>
</linearGradient>
<linearGradient id="paint1_linear_247_168" x1="1984.5" y1="3986.78" x2="1984.5" y2="0" gradientUnits="userSpaceOnUse">
<stop stop-color="#F9F9F9"/>
<stop offset="1" stop-color="white"/>
</linearGradient>
<linearGradient id="paint2_linear_247_168" x1="30" y1="20" x2="181" y2="20" gradientUnits="userSpaceOnUse">
<stop stop-color="#0A6A37"/>
<stop offset="1" stop-color="#14D06C"/>
</linearGradient>
<clipPath id="clip0_247_168">
<rect width="39.6899" height="40" fill="white"/>
</clipPath>
</defs>
</svg>
