<svg width="22" height="22" viewBox="0 0 22 22" fill="none" xmlns="http://www.w3.org/2000/svg">
<path d="M9.16671 13.7499L13.9242 10.9999L9.16671 8.24992V13.7499ZM19.7634 6.57242C19.8825 7.00325 19.965 7.58075 20.02 8.31408C20.0842 9.04742 20.1117 9.67992 20.1117 10.2299L20.1667 10.9999C20.1667 13.0074 20.02 14.4833 19.7634 15.4274C19.5342 16.2524 19.0025 16.7841 18.1775 17.0133C17.7467 17.1324 16.9584 17.2149 15.7484 17.2699C14.5567 17.3341 13.4659 17.3616 12.4575 17.3616L11 17.4166C7.15921 17.4166 4.76671 17.2699 3.82254 17.0133C2.99754 16.7841 2.46587 16.2524 2.23671 15.4274C2.11754 14.9966 2.03504 14.4191 1.98004 13.6858C1.91587 12.9524 1.88837 12.3199 1.88837 11.7699L1.83337 10.9999C1.83337 8.99242 1.98004 7.51659 2.23671 6.57242C2.46587 5.74742 2.99754 5.21575 3.82254 4.98659C4.25337 4.86742 5.04171 4.78492 6.25171 4.72992C7.44337 4.66575 8.53421 4.63825 9.54254 4.63825L11 4.58325C14.8409 4.58325 17.2334 4.72992 18.1775 4.98659C19.0025 5.21575 19.5342 5.74742 19.7634 6.57242Z" fill="white"/>
</svg>
