<svg width="114" height="80" viewBox="0 0 114 80" fill="none" xmlns="http://www.w3.org/2000/svg">
<g clip-path="url(#clip0_842_1744)">
<path d="M111.266 12.4778C110.614 10.066 109.341 7.86731 107.574 6.10057C105.807 4.33383 103.609 3.06072 101.197 2.408C92.3675 0 56.8324 0 56.8324 0C56.8324 0 21.2955 0.0728887 12.4662 2.48089C10.0544 3.13364 7.85572 4.40683 6.08906 6.17365C4.32239 7.94047 3.0494 10.1393 2.39686 12.5511C-0.273805 28.2391 -1.30981 52.144 2.4702 67.2045C3.12281 69.6162 4.39582 71.8149 6.16248 73.5817C7.92914 75.3484 10.1278 76.6215 12.5395 77.2742C21.3689 79.6822 56.9049 79.6822 56.9049 79.6822C56.9049 79.6822 92.4404 79.6822 101.269 77.2742C103.681 76.6216 105.88 75.3485 107.647 73.5817C109.413 71.815 110.686 69.6163 111.339 67.2045C114.156 51.4942 115.024 27.604 111.266 12.4778Z" fill="#FF0000"/>
<path d="M45.5215 56.9154L75.0006 39.8408L45.5215 22.7661V56.9154Z" fill="white"/>
</g>
<defs>
<clipPath id="clip0_842_1744">
<rect width="113.78" height="80" fill="white"/>
</clipPath>
</defs>
</svg>
