<svg width="100" height="100" viewBox="0 0 100 100" fill="none" xmlns="http://www.w3.org/2000/svg">
<path d="M0 82.8125C0 85.4009 2.23906 87.5 5 87.5H15C17.7609 87.5 20 85.4009 20 82.8125V35.9375H0V82.8125ZM90.4937 54.6875C93.2844 52.1401 95 49.2178 95 46.0581C95 38.3149 88.4703 32.3193 81.2625 28.0552C74.7094 24.1777 68.6641 19.5928 63.7687 13.9604L62.5 12.5L61.2313 13.9604C56.3359 19.5928 50.2922 24.1792 43.7375 28.0552C36.5297 32.3193 30 38.3149 30 46.0581C30 49.2178 31.7156 52.1401 34.5062 54.6875H90.4937ZM95 59.375H30C27.2391 59.375 25 61.4741 25 64.0625V82.8125C25 85.4009 27.2391 87.5 30 87.5H35V78.125C35 75.5366 37.2391 73.4375 40 73.4375C42.7609 73.4375 45 75.5366 45 78.125V87.5H55V76.9531C55 69.9219 62.5 66.4062 62.5 66.4062C62.5 66.4062 70 69.9219 70 76.9531V87.5H80V78.125C80 75.5366 82.2391 73.4375 85 73.4375C87.7609 73.4375 90 75.5366 90 78.125V87.5H95C97.7609 87.5 100 85.4009 100 82.8125V64.0625C100 61.4741 97.7609 59.375 95 59.375ZM10 12.5C10 12.5 0 17.1875 0 26.5625V31.25H20V26.5625C20 17.1875 10 12.5 10 12.5Z" fill="black" fill-opacity="0.2"/>
</svg>
