<svg width="100" height="100" viewBox="0 0 100 100" fill="none" xmlns="http://www.w3.org/2000/svg">
<path d="M37.5028 18.75C39.9893 18.75 42.3741 17.7623 44.1324 16.0041C45.8906 14.246 46.8784 11.8614 46.8784 9.375C46.8784 6.8886 45.8906 4.50403 44.1324 2.74587C42.3741 0.98772 39.9893 0 37.5028 0C35.0162 0 32.6314 0.98772 30.8731 2.74587C29.1149 4.50403 28.1271 6.8886 28.1271 9.375C28.1271 11.8614 29.1149 14.246 30.8731 16.0041C32.6314 17.7623 35.0162 18.75 37.5028 18.75ZM23.5369 48.2812C25.9589 47.3633 27.1895 44.668 26.2715 42.2461C25.3534 39.8242 22.6579 38.5938 20.2359 39.5117C8.41859 43.9648 0 55.3711 0 68.75C0 86.0156 13.9854 100 31.2523 100C43.2063 100 53.5782 93.3008 58.8324 83.457C60.0435 81.1719 59.184 78.3398 56.8987 77.1094C54.6134 75.8789 51.7811 76.7578 50.5506 79.043C46.8784 85.9375 39.6123 90.625 31.2523 90.625C19.1616 90.625 9.37569 80.8398 9.37569 68.75C9.37569 59.3945 15.255 51.4062 23.5369 48.2812ZM50.7459 34.375L50.3748 32.4805C49.4958 28.125 45.6869 25 41.2335 25C35.3542 25 30.9398 30.3711 32.0922 36.1328L36.6042 58.6914C37.7762 64.5312 42.8938 68.7305 48.8708 68.7305H68.5011C69.8098 68.7305 70.9622 69.5312 71.431 70.7617L78.5214 89.6875C79.6933 92.832 83.1702 94.4922 86.354 93.418L95.7297 90.293C99.0112 89.1992 100.769 85.6641 99.6753 82.3828C98.5815 79.1016 95.046 77.3438 91.7645 78.4375L88.1119 79.6484L83.1311 66.3672C80.8458 60.2734 75.0055 56.2305 68.5011 56.2305H55.1212L53.2461 46.8555H65.6298C69.0871 46.8555 71.8803 44.0625 71.8803 40.6055C71.8803 37.1484 69.0871 34.3555 65.6298 34.3555H50.7459V34.375Z" fill="black" fill-opacity="0.2"/>
</svg>
