<svg width="100" height="100" viewBox="0 0 100 100" fill="none" xmlns="http://www.w3.org/2000/svg">
<path d="M67.9219 18.75H54.5C53.25 18.75 52.0469 19.2261 51.125 20.0832L35.7656 34.3676C35.75 34.3834 35.7344 34.4152 35.7188 34.4311C33.125 36.907 33.1719 40.859 35.3906 43.3191C37.375 45.5253 41.5469 46.1125 44.1563 43.7476C44.1719 43.7318 44.2031 43.7318 44.2188 43.7159L56.7031 32.098C57.7188 31.1615 59.3125 31.225 60.2344 32.2567C61.1719 33.2883 61.0938 34.8913 60.0781 35.8436L56 39.6369L78.75 58.3971C79.2031 58.778 79.6094 59.1906 79.9844 59.6192V28.9078L71.4531 20.2419C70.5312 19.2896 69.25 18.75 67.9219 18.75ZM85 28.9395V64.4759C85 67.2851 87.2344 69.5547 90 69.5547H100V28.9395H85ZM92.5 64.4759C91.125 64.4759 90 63.3331 90 61.9364C90 60.5397 91.125 59.397 92.5 59.397C93.875 59.397 95 60.5397 95 61.9364C95 63.3331 93.875 64.4759 92.5 64.4759ZM0 69.5389H10C12.7656 69.5389 15 67.2692 15 64.46V28.9395H0V69.5389ZM7.5 59.397C8.875 59.397 10 60.5397 10 61.9364C10 63.3331 8.875 64.4759 7.5 64.4759C6.125 64.4759 5 63.3331 5 61.9364C5 60.5238 6.125 59.397 7.5 59.397ZM75.6094 62.3491L52.2813 43.1128L47.5938 47.4775C42.9531 51.7786 35.8437 51.366 31.7031 46.7791C27.5 42.1129 27.8281 34.8913 32.3906 30.6378L45.1719 18.75H32.0781C30.75 18.75 29.4844 19.2896 28.5469 20.2419L20 28.9078V64.4441H22.8594L37 77.4429C41.2813 80.9822 47.5781 80.3156 51.0625 75.9668L51.0938 75.9351L53.8906 78.3952C56.375 80.4585 60.0469 80.0617 62.0625 77.5381L66.9688 71.4117L67.8125 72.1101C69.9531 73.8718 73.1094 73.5544 74.8438 71.3641L76.3281 69.5071C78.0781 67.3169 77.75 64.1267 75.6094 62.3491Z" fill="black" fill-opacity="0.2"/>
</svg>
