<svg width="100" height="100" viewBox="0 0 100 100" fill="none" xmlns="http://www.w3.org/2000/svg">
<path fill-rule="evenodd" clip-rule="evenodd" d="M0 10C0 7.34783 1.05357 4.8043 2.92893 2.92893C4.8043 1.05357 7.34783 0 10 0L90 0C92.6522 0 95.1957 1.05357 97.0711 2.92893C98.9464 4.8043 100 7.34783 100 10V36.6667L94.6667 32.66C88.8895 28.3271 81.7433 26.2236 74.54 26.7355C67.3367 27.2474 60.5598 30.3405 55.4535 35.4468C50.3471 40.5531 47.2541 47.33 46.7421 54.5333C46.2302 61.7366 48.3338 68.8828 52.6667 74.66L53.3333 75.5533V100H10C7.34783 100 4.8043 98.9464 2.92893 97.0711C1.05357 95.1957 0 92.6522 0 90L0 10ZM53.3333 33.3333H20L20 26.6667L53.3333 26.6667V33.3333ZM20 53.3333H40V46.6667H20V53.3333Z" fill="black" fill-opacity="0.2"/>
<path fill-rule="evenodd" clip-rule="evenodd" d="M76.6668 33.3333C72.0714 33.3326 67.5782 34.6888 63.7507 37.2319C59.9232 39.7749 56.9319 43.3915 55.1518 47.6281C53.3717 51.8646 52.8823 56.5325 53.7448 61.0461C54.6073 65.5597 56.7834 69.7182 60.0001 72.9999V96.6666C60.0001 97.2856 60.1725 97.8924 60.4979 98.419C60.8234 98.9456 61.289 99.3712 61.8427 99.648C62.3964 99.9248 63.0162 100.042 63.6328 99.9865C64.2493 99.9309 64.8382 99.7047 65.3334 99.3332L76.6668 90.8333L88.0001 99.3332C88.4953 99.7047 89.0842 99.9309 89.7007 99.9865C90.3173 100.042 90.9371 99.9248 91.4908 99.648C92.0445 99.3712 92.5101 98.9456 92.8356 98.419C93.161 97.8924 93.3334 97.2856 93.3334 96.6666V72.9999C96.5501 69.7182 98.7262 65.5597 99.5887 61.0461C100.451 56.5325 99.9618 51.8646 98.1817 47.6281C96.4017 43.3915 93.4103 39.7749 89.5828 37.2319C85.7553 34.6888 81.2621 33.3326 76.6668 33.3333ZM66.6668 89.9999V77.7533C69.7001 79.1933 73.0868 79.9999 76.6668 79.9999C80.2468 79.9999 83.6334 79.1999 86.6668 77.7533V89.9999L78.6668 83.9999C78.0898 83.5672 77.388 83.3333 76.6668 83.3333C75.9455 83.3333 75.2437 83.5672 74.6668 83.9999L66.6668 89.9999Z" fill="black" fill-opacity="0.2"/>
</svg>
