<svg width="100" height="100" viewBox="0 0 100 100" fill="none" xmlns="http://www.w3.org/2000/svg">
<path d="M8.33331 79.1666C8.33331 86.2499 13.75 91.6666 20.8333 91.6666H79.1666C86.25 91.6666 91.6666 86.2499 91.6666 79.1666V45.8333H8.33331V79.1666ZM79.1666 16.6666H70.8333V12.4999C70.8333 9.99992 69.1666 8.33325 66.6666 8.33325C64.1666 8.33325 62.5 9.99992 62.5 12.4999V16.6666H37.5V12.4999C37.5 9.99992 35.8333 8.33325 33.3333 8.33325C30.8333 8.33325 29.1666 9.99992 29.1666 12.4999V16.6666H20.8333C13.75 16.6666 8.33331 22.0833 8.33331 29.1666V37.4999H91.6666V29.1666C91.6666 22.0833 86.25 16.6666 79.1666 16.6666Z" fill="black" fill-opacity="0.2"/>
</svg>
