<svg width="100" height="100" viewBox="0 0 100 100" fill="none" xmlns="http://www.w3.org/2000/svg">
<path d="M95 71.6667C94.3818 71.1257 93.6299 70.8333 92.8571 70.8333H89.2857V16.6667C89.2857 12.2464 87.7806 8.00716 85.1015 4.88155C82.4224 1.75595 78.7888 0 75 0H14.2857C10.4969 0 6.86328 1.75595 4.18419 4.88155C1.5051 8.00716 0 12.2464 0 16.6667C0 23.7552 4.48661 27.8854 5 28.3333C5.61666 28.8777 6.36958 29.1705 7.14286 29.1667C7.8872 29.1643 8.6123 28.8906 9.21682 28.384C9.82134 27.8773 10.2751 27.1629 10.5146 26.3407C10.7541 25.5185 10.7674 24.6295 10.5527 23.7981C10.338 22.9666 9.90593 22.2341 9.31696 21.7031C9.29911 21.6771 7.14286 19.6562 7.14286 16.6667C7.14286 14.4565 7.89541 12.3369 9.23495 10.7741C10.5745 9.21131 12.3913 8.33333 14.2857 8.33333C16.1801 8.33333 17.9969 9.21131 19.3365 10.7741C20.676 12.3369 21.4286 14.4565 21.4286 16.6667V83.3333C21.4286 87.7536 22.9337 91.9928 25.6128 95.1184C28.2919 98.244 31.9255 100 35.7143 100H85.7143C89.5031 100 93.1367 98.244 95.8158 95.1184C98.4949 91.9928 100 87.7536 100 83.3333C100 76.2448 95.5357 72.1146 95 71.6667ZM42.8571 33.3333H71.4286C72.3758 33.3333 73.2842 33.7723 73.954 34.5537C74.6237 35.3351 75 36.3949 75 37.5C75 38.6051 74.6237 39.6649 73.954 40.4463C73.2842 41.2277 72.3758 41.6667 71.4286 41.6667H42.8571C41.9099 41.6667 41.0015 41.2277 40.3318 40.4463C39.662 39.6649 39.2857 38.6051 39.2857 37.5C39.2857 36.3949 39.662 35.3351 40.3318 34.5537C41.0015 33.7723 41.9099 33.3333 42.8571 33.3333ZM39.2857 54.1667C39.2857 53.0616 39.662 52.0018 40.3318 51.2204C41.0015 50.439 41.9099 50 42.8571 50H71.4286C72.3758 50 73.2842 50.439 73.954 51.2204C74.6237 52.0018 75 53.0616 75 54.1667C75 55.2717 74.6237 56.3315 73.954 57.1129C73.2842 57.8943 72.3758 58.3333 71.4286 58.3333H42.8571C41.9099 58.3333 41.0015 57.8943 40.3318 57.1129C39.662 56.3315 39.2857 55.2717 39.2857 54.1667ZM85.7143 91.6667H44.5134C45.7716 89.1351 46.4324 86.2597 46.4286 83.3333C46.4289 81.9207 46.2468 80.516 45.8884 79.1667H91.4241C92.3107 80.3138 92.8214 81.7896 92.8661 83.3333C92.8661 84.4286 92.681 85.513 92.3215 86.5248C91.962 87.5365 91.435 88.4556 90.7708 89.2296C90.1066 90.0035 89.3181 90.6171 88.4505 91.0353C87.5828 91.4535 86.653 91.668 85.7143 91.6667Z" fill="black" fill-opacity="0.2"/>
</svg>
