<svg width="100" height="100" viewBox="0 0 100 100" fill="none" xmlns="http://www.w3.org/2000/svg">
<path d="M53.9958 0.211067C55.1508 -0.108497 56.3841 -0.0642085 57.5102 0.337273C58.6363 0.738754 59.5944 1.47573 60.2404 2.43737L99.1301 60.3318C99.6648 61.1276 99.964 62.045 99.9962 62.9878C100.028 63.9307 99.7925 64.8645 99.3132 65.6914C98.8339 66.5183 98.1288 67.208 97.2717 67.6882C96.4145 68.1684 95.4369 68.4216 94.4411 68.4212H55.5514C54.078 68.4212 52.6649 67.8667 51.623 66.8797C50.5811 65.8927 49.9958 64.554 49.9958 63.1581V5.26367C49.9958 4.12489 50.3856 3.01682 51.1069 2.10579C51.8281 1.19477 52.8418 0.529927 53.9958 0.211067ZM1.05032 75.8686C1.56454 75.1932 2.24057 74.6431 3.02287 74.2633C3.80517 73.8836 4.67141 73.6852 5.55041 73.6844H94.4411C95.3235 73.6839 96.1934 73.8825 96.9787 74.2639C97.764 74.6452 98.4421 75.1983 98.9568 75.8773C99.4716 76.5563 99.8082 77.3417 99.9388 78.1685C100.069 78.9953 99.9903 79.8397 99.7079 80.6317C98.5578 83.8422 96.8745 86.9474 94.8967 89.7632C91.8966 94.0263 86.2798 100 77.7741 100H22.2174C13.7172 100 8.09491 94.0263 5.09485 89.7632C3.08033 86.9278 1.46307 83.8565 0.283642 80.6264C0.00657285 79.8325 -0.0689025 78.9879 0.0633481 78.1612C0.195599 77.3345 0.531844 76.549 1.04477 75.8686H1.05032ZM34.1732 18.2636C34.8126 17.2945 35.7675 16.5488 36.8938 16.1394C38.0201 15.7299 39.2564 15.6788 40.416 15.9939C41.5756 16.3089 42.5955 16.973 43.3215 17.8857C44.0474 18.7984 44.4401 19.9102 44.4401 21.0531V63.1581C44.4401 64.554 43.8548 65.8927 42.8129 66.8797C41.771 67.8667 40.3579 68.4212 38.8844 68.4212H11.1061C10.1144 68.4212 9.14073 68.1697 8.28625 67.6929C7.43177 67.2161 6.7276 66.5312 6.24685 65.7095C5.76609 64.8878 5.52629 63.9591 5.55232 63.0199C5.57835 62.0808 5.86927 61.1653 6.39488 60.3686L34.1732 18.2636Z" fill="black" fill-opacity="0.2"/>
</svg>
